<svg width="24" height="24" viewBox="0 0 24 24" fill="none" xmlns="http://www.w3.org/2000/svg">
<g clip-path="url(#clip0_4378_180)">
<path d="M19.33 13.0656L14.76 11.4756C13.76 11.1256 12.98 10.3556 12.62 9.35561L10.94 4.67561C10.8 4.27561 10.42 4.01561 10 4.01561C9.58 4.01561 9.2 4.28561 9.06 4.67561L7.38 9.35561C7.02 10.3556 6.24 11.1256 5.24 11.4756L0.67 13.0656C0.27 13.2056 0 13.5856 0 14.0056C0 14.4256 0.27 14.8056 0.67 14.9456L5.24 16.5356C6.24 16.8856 7.02 17.6556 7.38 18.6556L9.06 23.3356C9.2 23.7356 9.58 23.9956 10 23.9956C10.42 23.9956 10.8 23.7356 10.94 23.3356L12.62 18.6556C12.98 17.6556 13.76 16.8856 14.76 16.5356L19.33 14.9456C19.73 14.8056 20 14.4256 20 14.0056C20 13.5856 19.73 13.2056 19.33 13.0656ZM14.1 14.6556C12.52 15.2056 11.3 16.4156 10.73 17.9856L9.99 20.0456L9.25 17.9856C8.69 16.4156 7.46 15.1956 5.88 14.6556L4.02 14.0056L5.88 13.3556C7.46 12.8056 8.68 11.5956 9.25 10.0256L9.99 7.96561L10.73 10.0256C11.29 11.5956 12.52 12.8156 14.1 13.3556L15.96 14.0056L14.1 14.6556ZM23.5 4.54561L21.22 3.74561C20.79 3.59561 20.46 3.26561 20.3 2.83561L19.46 0.495605C19.35 0.195605 19.07 -0.00439453 18.75 -0.00439453C18.43 -0.00439453 18.15 0.195605 18.04 0.495605L17.2 2.83561C17.05 3.26561 16.71 3.59561 16.28 3.74561L14 4.54561C13.7 4.64561 13.5 4.93561 13.5 5.25561C13.5 5.57561 13.7 5.85561 14 5.96561L16.28 6.76561C16.71 6.91561 17.04 7.24561 17.2 7.67561L18.04 10.0156C18.15 10.3156 18.43 10.5156 18.75 10.5156C19.07 10.5156 19.35 10.3156 19.46 10.0156L20.3 7.67561C20.45 7.24561 20.79 6.91561 21.22 6.76561L23.5 5.96561C23.8 5.86561 24 5.57561 24 5.25561C24 4.93561 23.8 4.65561 23.5 4.54561ZM20.72 5.34561C19.86 5.64561 19.19 6.30561 18.88 7.16561L18.75 7.53561L18.62 7.16561C18.31 6.30561 17.64 5.64561 16.78 5.34561L16.53 5.25561L16.78 5.16561C17.64 4.86561 18.31 4.20561 18.62 3.34561L18.75 2.97561L18.88 3.34561C19.19 4.20561 19.86 4.86561 20.72 5.16561L20.97 5.25561L20.72 5.34561Z" fill="currentColor"/>
</g>
<defs>
<clipPath id="clip0_4378_180">
<rect width="24" height="24" fill="white" transform="translate(0 0.00561523)"/>
</clipPath>
</defs>
</svg>
