<svg width="24" height="24" viewBox="0 0 24 24" fill="none" xmlns="http://www.w3.org/2000/svg">
<path d="M19.5 0.5H4.5C2.85 0.5 1.5 1.85 1.5 3.5V20.5C1.5 22.15 2.85 23.5 4.5 23.5H19.5C21.15 23.5 22.5 22.15 22.5 20.5V3.5C22.5 1.85 21.15 0.5 19.5 0.5ZM15.48 16.5L15.17 17.37C15.13 17.47 15.04 17.54 14.94 17.54H9.07C8.97 17.54 8.87 17.47 8.83 17.37L8.52 16.51H15.49L15.48 16.5ZM3.5 14.5V9.5H6.92L7.41 10.87C7.66 11.56 8.32 12.03 9.06 12.03H14.93C15.67 12.03 16.33 11.56 16.58 10.87L17.07 9.5H20.49V14.5H3.5ZM15.48 9.5L15.17 10.37C15.13 10.47 15.04 10.54 14.94 10.54H9.07C8.97 10.54 8.87 10.47 8.83 10.37L8.52 9.51H15.49L15.48 9.5ZM15.48 2.5L15.17 3.37C15.13 3.47 15.04 3.54 14.94 3.54H9.07C8.97 3.54 8.87 3.47 8.83 3.37L8.52 2.51H15.49L15.48 2.5ZM4.5 2.5H6.92L7.41 3.87C7.66 4.56 8.32 5.03 9.06 5.03H14.93C15.67 5.03 16.33 4.56 16.58 3.87L17.07 2.5H19.49C20.04 2.5 20.49 2.95 20.49 3.5V7.5H3.5V3.5C3.5 2.95 3.95 2.5 4.5 2.5ZM19.5 21.5H4.5C3.95 21.5 3.5 21.05 3.5 20.5V16.5H6.92L7.41 17.87C7.66 18.56 8.32 19.03 9.06 19.03H14.93C15.67 19.03 16.33 18.56 16.58 17.87L17.07 16.5H20.49V20.5C20.49 21.05 20.04 21.5 19.49 21.5H19.5Z" fill="currentColor"/>
</svg>
