<svg width="24" height="24" viewBox="0 0 24 24" fill="none" xmlns="http://www.w3.org/2000/svg">
<path d="M5.71024 11.71L12.0002 5.42L18.2902 11.71C18.4902 11.91 18.7402 12 19.0002 12C19.2602 12 19.5102 11.9 19.7102 11.71C20.1002 11.32 20.1002 10.69 19.7102 10.3L12.7102 3.29C12.3202 2.9 11.6902 2.9 11.3002 3.29L4.29024 10.29C3.90024 10.68 3.90024 11.31 4.29024 11.7C4.68024 12.09 5.31024 12.09 5.70024 11.7L5.71024 11.71ZM19.0002 17H5.00024C4.45024 17 4.00024 17.45 4.00024 18C4.00024 18.55 4.45024 19 5.00024 19H19.0002C19.5502 19 20.0002 18.55 20.0002 18C20.0002 17.45 19.5502 17 19.0002 17Z" fill="currentColor"/>
</svg>
