<svg width="24" height="24" viewBox="0 0 24 24" fill="none" xmlns="http://www.w3.org/2000/svg">
<path d="M5.9999 18.9987L5.9999 4.99872C5.9999 4.44872 5.54969 3.99872 4.99943 3.99872C4.44917 3.99872 3.99896 4.44872 3.99896 4.99872L3.99896 18.9987C3.99896 19.5487 4.44917 19.9987 4.99943 19.9987C5.54969 19.9987 5.9999 19.5487 5.9999 18.9987ZM11.2924 11.2887C10.9022 11.6787 10.9022 12.3087 11.2924 12.6987L18.2957 19.7087C18.6858 20.0987 19.3161 20.0987 19.7063 19.7087C20.0965 19.3187 20.0965 18.6887 19.7063 18.2987L13.4134 12.0087L19.7063 5.71872C19.9064 5.51872 19.9965 5.26872 19.9965 5.00872C19.9965 4.74872 19.8964 4.49872 19.7063 4.29872C19.3161 3.90872 18.6858 3.90872 18.2957 4.29872L11.2924 11.2987L11.2924 11.2887Z" fill="currentColor"/>
</svg>
