<svg width="24" height="24" viewBox="0 0 24 24" fill="none" xmlns="http://www.w3.org/2000/svg">
<path d="M12.2891 5.70872L18.5791 11.9987L12.2891 18.2887C12.0891 18.4887 11.9991 18.7387 11.9991 18.9987C11.9991 19.2587 12.0991 19.5087 12.2891 19.7087C12.6791 20.0987 13.3091 20.0987 13.6991 19.7087L20.7091 12.7087C21.0991 12.3187 21.0991 11.6887 20.7091 11.2987L13.7091 4.28872C13.3191 3.89872 12.6891 3.89872 12.2991 4.28872C11.9091 4.67872 11.9091 5.30872 12.2991 5.69872L12.2891 5.70872ZM6.99915 18.9987L6.99915 4.99872C6.99915 4.44872 6.54915 3.99872 5.99915 3.99872C5.44915 3.99872 4.99915 4.44872 4.99915 4.99872L4.99915 18.9987C4.99915 19.5487 5.44915 19.9987 5.99915 19.9987C6.54915 19.9987 6.99915 19.5487 6.99915 18.9987Z" fill="currentColor"/>
</svg>
