<svg width="24" height="24" viewBox="0 0 24 24" fill="none" xmlns="http://www.w3.org/2000/svg">
<path d="M4.99922 7.00125H18.9883C19.5379 7.00125 19.9875 6.55097 19.9875 6.00063C19.9875 5.45028 19.5379 5 18.9883 5H4.99922C4.44965 5 4 5.45028 4 6.00063C4 6.55097 4.44965 7.00125 4.99922 7.00125ZM18.2788 12.2946L11.9938 18.5885L5.70867 12.2946C5.31897 11.9043 4.68946 11.9043 4.29977 12.2946C3.91007 12.6848 3.91007 13.3152 4.29977 13.7054L11.2943 20.7098C11.4941 20.9099 11.7439 21 12.0037 21C12.2635 21 12.5133 20.8999 12.7132 20.7098L19.7077 13.7054C20.0974 13.3152 20.0974 12.6848 19.7077 12.2946C19.318 11.9043 18.6885 11.9043 18.2988 12.2946H18.2788Z" fill="currentColor"/>
</svg>
