<svg width="24" height="24" viewBox="0 0 24 24" fill="none" xmlns="http://www.w3.org/2000/svg">
<path d="M5.00055 6.00094H19.0005C19.5505 6.00094 20.0005 5.55073 20.0005 5.00047C20.0005 4.45021 19.5505 4 19.0005 4H5.00055C4.45055 4 4.00055 4.45021 4.00055 5.00047C4.00055 5.55073 4.45055 6.00094 5.00055 6.00094ZM12.7105 11.2934C12.3205 10.9032 11.6905 10.9032 11.3005 11.2934L4.29055 18.2967C3.90055 18.6869 3.90055 19.3172 4.29055 19.7074C4.68055 20.0975 5.31055 20.0975 5.70055 19.7074L11.9905 13.4144L18.2805 19.7074C18.4805 19.9075 18.7305 19.9975 18.9905 19.9975C19.2505 19.9975 19.5005 19.8975 19.7005 19.7074C20.0905 19.3172 20.0905 18.6869 19.7005 18.2967L12.7005 11.2934H12.7105Z" fill="currentColor"/>
</svg>
