<svg width="24" height="24" viewBox="0 0 24 24" fill="none" xmlns="http://www.w3.org/2000/svg">
<path d="M12.7122 18.2887L6.4222 11.9987L12.7122 5.70872C12.9122 5.50872 13.0022 5.25872 13.0022 4.99872C13.0022 4.73872 12.9022 4.48872 12.7122 4.28872C12.3222 3.89872 11.6922 3.89872 11.3022 4.28872L4.29219 11.2887C3.90219 11.6787 3.90219 12.3087 4.29219 12.6987L11.2922 19.7087C11.6822 20.0987 12.3122 20.0987 12.7022 19.7087C13.0922 19.3187 13.0922 18.6887 12.7022 18.2987L12.7122 18.2887ZM18.0022 4.99872L18.0022 18.9987C18.0022 19.5487 18.4522 19.9987 19.0022 19.9987C19.5522 19.9987 20.0022 19.5487 20.0022 18.9987L20.0022 4.99872C20.0022 4.44872 19.5522 3.99872 19.0022 3.99872C18.4522 3.99872 18.0022 4.44872 18.0022 4.99872Z" fill="currentColor"/>
</svg>
