<svg width="24" height="24" viewBox="0 0 24 24" fill="none" xmlns="http://www.w3.org/2000/svg">
<path d="M16 8.75001H5.41L9.2 4.96001C9.59 4.57001 9.59 3.94001 9.2 3.55001C8.81 3.16001 8.18 3.16001 7.79 3.55001L2.29 9.04001C1.9 9.43001 1.9 10.06 2.29 10.45L7.79 15.95C7.99 16.15 8.24 16.24 8.5 16.24C8.76 16.24 9.01 16.14 9.21 15.95C9.6 15.56 9.6 14.93 9.21 14.54L5.42 10.75H16.01C18.22 10.75 20.01 12.54 20.01 14.75C20.01 16.96 18.22 18.75 16.01 18.75H12.01C11.46 18.75 11.01 19.2 11.01 19.75C11.01 20.3 11.46 20.75 12.01 20.75H16.01C19.32 20.75 22.01 18.06 22.01 14.75C22.01 11.44 19.32 8.75001 16.01 8.75001H16Z" fill="currentColor"/>
</svg>
