<svg width="24" height="24" viewBox="0 0 24 24" fill="none" xmlns="http://www.w3.org/2000/svg">
<path d="M20.9399 17.7656C20.9399 17.7656 18.9899 15.7756 18.9899 12.4856C18.9899 6.81562 16.9699 3.74563 12.9999 3.31562V2.01562C12.9999 1.46562 12.5499 1.01562 11.9999 1.01562C11.4499 1.01562 10.9999 1.46562 10.9999 2.01562V3.31562C7.02995 3.74563 5.00995 6.82562 5.00995 12.4856C5.00995 15.7356 3.06995 17.7456 3.05995 17.7656C2.76995 18.0556 2.68995 18.4856 2.83995 18.8556C2.98995 19.2256 3.35995 19.4756 3.75995 19.4756H8.21995C8.35995 21.4456 9.98995 23.0156 11.9899 23.0156C13.9899 23.0156 15.6199 21.4456 15.7599 19.4756H20.2199C20.6199 19.4756 20.9899 19.2356 21.1399 18.8556C21.2899 18.4856 21.2099 18.0556 20.9199 17.7656H20.9399ZM11.9999 21.0056C11.0999 21.0056 10.3599 20.3356 10.2299 19.4656H13.7799C13.6499 20.3356 12.9099 21.0056 12.0099 21.0056H11.9999ZM5.70995 17.4656C6.35995 16.3156 7.01995 14.6156 7.01995 12.4756C7.01995 7.40562 8.50995 5.24562 12.0099 5.24562C15.5099 5.24562 16.9999 7.40562 16.9999 12.4756C16.9999 14.6156 17.6599 16.3156 18.3099 17.4656H5.70995Z" fill="currentColor"/>
</svg>
