<svg width="24" height="24" viewBox="0 0 24 24" fill="none" xmlns="http://www.w3.org/2000/svg">
<path d="M18.1819 11.8456C17.6322 11.8456 17.1824 12.2956 17.1824 12.8456V18.3256C17.1824 19.2556 16.4328 20.0056 15.5032 20.0056H5.67816C4.74863 20.0056 3.999 19.2556 3.999 18.3256V8.49562C3.999 7.56562 4.74863 6.81562 5.67816 6.81562H10.1159C10.6657 6.81562 11.1154 6.36562 11.1154 5.81562C11.1154 5.26562 10.6657 4.81562 10.1159 4.81562H5.67816C3.64918 4.81562 2 6.46562 2 8.49562V18.3256C2 20.3556 3.64918 22.0056 5.67816 22.0056H15.5032C17.5322 22.0056 19.1814 20.3556 19.1814 18.3256V12.8456C19.1814 12.2956 18.7316 11.8456 18.1819 11.8456ZM20.9905 2.00562H14.3638C13.8141 2.00562 13.3643 2.45562 13.3643 3.00562C13.3643 3.55562 13.8141 4.00562 14.3638 4.00562H18.5817L10.8156 11.7756C10.4258 12.1656 10.4258 12.7956 10.8156 13.1856C11.0155 13.3856 11.2654 13.4756 11.5252 13.4756C11.7851 13.4756 12.035 13.3756 12.2349 13.1856L20.001 5.41562V9.63562C20.001 10.1856 20.4508 10.6356 21.0005 10.6356C21.5502 10.6356 22 10.1856 22 9.63562V3.00562C22 2.45562 21.5502 2.00562 21.0005 2.00562H20.9905Z" fill="currentColor"/>
</svg>
