<svg width="24" height="24" viewBox="0 0 24 24" fill="none" xmlns="http://www.w3.org/2000/svg">
<path d="M19.5 2.5H18V1.5C18 0.95 17.55 0.5 17 0.5C16.45 0.5 16 0.95 16 1.5V2.5H8V1.5C8 0.95 7.55 0.5 7 0.5C6.45 0.5 6 0.95 6 1.5V2.5H4.5C2.57 2.5 1 4.07 1 6V20C1 21.93 2.57 23.5 4.5 23.5H19.5C21.43 23.5 23 21.93 23 20V6C23 4.07 21.43 2.5 19.5 2.5ZM21 20C21 20.83 20.33 21.5 19.5 21.5H4.5C3.67 21.5 3 20.83 3 20V10H21V20ZM21 8H3V6C3 5.17 3.67 4.5 4.5 4.5H6V5.5C6 6.05 6.45 6.5 7 6.5C7.55 6.5 8 6.05 8 5.5V4.5H16V5.5C16 6.05 16.45 6.5 17 6.5C17.55 6.5 18 6.05 18 5.5V4.5H19.5C20.33 4.5 21 5.17 21 6V8ZM8.81 12.25H6.31V14.75H8.81V12.25ZM13.25 12.25H10.75V14.75H13.25V12.25ZM17.69 12.25H15.19V14.75H17.69V12.25ZM8.81 16.75H6.31V19.25H8.81V16.75ZM13.25 16.75H10.75V19.25H13.25V16.75ZM17.69 16.75H15.19V19.25H17.69V16.75Z" fill="currentColor"/>
</svg>
