<svg width="24" height="24" viewBox="0 0 24 24" fill="none" xmlns="http://www.w3.org/2000/svg">
<g clip-path="url(#clip0_3793_74)">
<path d="M23.79 7.27562C23.47 6.86562 22.89 6.76561 22.46 7.04562C22.4 7.07562 22.12 7.18562 21.44 7.32562C21.4 7.26562 21.37 7.19562 21.34 7.10562C20.69 5.32562 19.76 3.18562 18.32 2.36562C17.06 1.65562 14.19 1.50562 12 1.50562C9.80998 1.50562 6.93998 1.65562 5.67998 2.36562C4.23998 3.17562 3.30998 5.32562 2.65998 7.10562C2.62998 7.19562 2.59998 7.25562 2.55998 7.32562C1.86998 7.19562 1.59998 7.07562 1.53998 7.04562C1.10998 6.77562 0.52998 6.86562 0.20998 7.27562C-0.13002 7.71562 -0.0500197 8.33562 0.38998 8.67562C0.54998 8.79562 0.88998 8.97562 1.60998 9.15562C1.54998 9.29562 1.49998 9.45562 1.43998 9.62562C1.07998 10.6256 0.87998 11.5656 0.72998 12.3956L0.65998 12.8356C0.53998 13.5856 0.48998 13.8956 0.50998 14.9256C0.52998 16.0156 0.57998 18.3656 1.89998 19.3156V20.6356C1.89998 21.6656 2.74998 22.5056 3.79998 22.5056H6.00998C7.05998 22.5056 7.90998 21.6656 7.90998 20.6356V19.6856H12.01H16.11V20.6356C16.11 21.6656 16.96 22.5056 18.01 22.5056H20.22C21.27 22.5056 22.12 21.6656 22.12 20.6356V19.3156C23.44 18.3756 23.49 16.0256 23.51 14.9356C23.53 13.9056 23.48 13.5956 23.36 12.8456L23.29 12.3656C23.14 11.5756 22.95 10.6356 22.59 9.63562C22.53 9.46562 22.47 9.31562 22.42 9.16562C23.14 8.98562 23.48 8.80561 23.64 8.68562C24.08 8.34561 24.16 7.71562 23.82 7.28562L23.79 7.27562ZM6.65998 4.10562C7.14998 3.82562 8.83998 3.50562 12 3.50562C15.16 3.50562 16.84 3.82562 17.33 4.10562C17.96 4.46562 18.65 5.64562 19.39 7.60562C17.81 7.76561 15.47 7.89562 12 7.89562C8.52998 7.89562 6.18998 7.76561 4.60998 7.60562C5.33998 5.64562 6.02998 4.46562 6.66998 4.10562H6.65998ZM5.89998 20.5056H3.88998V19.6756H5.89998V20.5056ZM20.11 20.5056H18.1V19.6756H20.11V20.5056ZM21.49 14.8856C21.45 17.1056 21.07 17.5856 20.94 17.6756H17.1H12.01H3.04998C2.91998 17.5756 2.53998 17.1056 2.49998 14.8856C2.47998 14.0356 2.50998 13.8456 2.61998 13.1456L2.67998 12.7256C2.81998 11.9756 2.98998 11.1656 3.29998 10.2956C3.41998 9.96562 3.51998 9.71562 3.60998 9.50562C5.34998 9.72562 7.98998 9.88562 11.99 9.88562C15.99 9.88562 18.63 9.72562 20.37 9.50562C20.46 9.71562 20.56 9.96562 20.68 10.2956C20.99 11.1656 21.16 11.9756 21.3 12.6856L21.37 13.1356C21.48 13.8356 21.51 14.0256 21.49 14.8756V14.8856ZM18.34 11.0456C17.57 11.0456 16.94 11.6756 16.94 12.4456C16.94 13.2156 17.57 13.8456 18.34 13.8456C19.11 13.8456 19.74 13.2156 19.74 12.4456C19.74 11.6756 19.11 11.0456 18.34 11.0456ZM5.65998 11.0456C4.88998 11.0456 4.25998 11.6756 4.25998 12.4456C4.25998 13.2156 4.88998 13.8456 5.65998 13.8456C6.42998 13.8456 7.05998 13.2156 7.05998 12.4456C7.05998 11.6756 6.42998 11.0456 5.65998 11.0456ZM14.69 14.2856C13 14.6556 11.2 14.6556 9.51998 14.2856C9.10998 14.1956 8.70998 14.4556 8.62998 14.8556C8.53998 15.2556 8.79998 15.6556 9.19998 15.7456C10.15 15.9556 11.13 16.0656 12.11 16.0656C13.09 16.0656 14.07 15.9556 15.02 15.7456C15.42 15.6556 15.68 15.2556 15.59 14.8556C15.5 14.4556 15.1 14.1956 14.7 14.2856H14.69Z" fill="currentColor"/>
</g>
<defs>
<clipPath id="clip0_3793_74">
<rect width="24" height="24" fill="white" transform="translate(0 0.00561523)"/>
</clipPath>
</defs>
</svg>
