<svg width="24" height="24" viewBox="0 0 24 24" fill="none" xmlns="http://www.w3.org/2000/svg">
<path d="M20.7091 3.3C18.308 0.9 14.4061 0.9 12.005 3.3L10.2942 5.01C9.894 5.41 9.894 6.06 10.2942 6.46C10.6944 6.86 11.3447 6.86 11.7449 6.46L13.4557 4.75C15.0565 3.15 17.6577 3.15 19.2585 4.75C20.8592 6.35 20.8592 8.95 19.2585 10.55L17.5476 12.26C17.1475 12.66 17.1475 13.31 17.5476 13.71C17.7477 13.91 18.0079 14.01 18.268 14.01C18.5281 14.01 18.7882 13.91 18.9883 13.71L20.6991 12C23.1003 9.6 23.1003 5.7 20.6991 3.3H20.7091ZM12.2651 17.54L10.5543 19.25C8.95355 20.85 6.35231 20.85 4.75155 19.25C3.15079 17.65 3.15079 15.05 4.75155 13.45L6.46236 11.74C6.86255 11.34 6.86255 10.69 6.46236 10.29C6.06217 9.89 5.41186 9.89 5.01167 10.29L3.30086 12C0.899714 14.4 0.899714 18.3 3.30086 20.7C4.50143 21.9 6.07218 22.5 7.65293 22.5C9.23368 22.5 10.8044 21.9 12.005 20.7L13.7158 18.99C14.116 18.59 14.116 17.94 13.7158 17.54C13.3156 17.14 12.6653 17.14 12.2651 17.54ZM14.4462 8.11L8.11315 14.44C7.71296 14.84 7.71296 15.49 8.11315 15.89C8.31324 16.09 8.57337 16.19 8.83349 16.19C9.09362 16.19 9.35374 16.09 9.55383 15.89L15.8869 9.56C16.287 9.16 16.287 8.51 15.8869 8.11C15.4867 7.71 14.8364 7.71 14.4362 8.11H14.4462Z" fill="currentColor"/>
</svg>
