<svg width="24" height="24" viewBox="0 0 24 24" fill="none" xmlns="http://www.w3.org/2000/svg">
<path d="M6.68002 9.98564C6.29002 9.59564 5.66002 9.59564 5.27002 9.98564L4.62002 10.6356C5.27002 7.14564 8.33002 4.50564 12 4.50564C13.77 4.50564 15.48 5.13564 16.83 6.26564C17.25 6.61564 17.88 6.56564 18.24 6.14564C18.6 5.72564 18.54 5.09564 18.12 4.73564C16.41 3.29564 14.24 2.50564 12 2.50564C7.15002 2.49564 3.15002 6.13564 2.57002 10.8256L1.72002 9.94564C1.34002 9.54564 0.700019 9.53564 0.310019 9.92564C-0.0899811 10.3056 -0.0999811 10.9456 0.290019 11.3356L2.76002 13.8856C2.95002 14.0756 3.20002 14.1856 3.47002 14.1956C3.74002 14.1956 3.99002 14.0856 4.18002 13.9056L6.69002 11.3956C7.08002 11.0056 7.08002 10.3756 6.69002 9.98564H6.68002ZM15.5 11.2556H8.50002C8.09002 11.2556 7.75002 11.5956 7.75002 12.0056C7.75002 12.4156 8.09002 12.7556 8.50002 12.7556H15.5C15.91 12.7556 16.25 12.4156 16.25 12.0056C16.25 11.5956 15.91 11.2556 15.5 11.2556ZM15.5 14.2556H8.50002C8.09002 14.2556 7.75002 14.5956 7.75002 15.0056C7.75002 15.4156 8.09002 15.7556 8.50002 15.7556H15.5C15.91 15.7556 16.25 15.4156 16.25 15.0056C16.25 14.5956 15.91 14.2556 15.5 14.2556ZM23.72 12.6756L21.25 10.1256C21.06 9.93564 20.81 9.82564 20.54 9.81564C20.27 9.80564 20.01 9.91564 19.82 10.1056L17.31 12.6156C16.92 13.0056 16.92 13.6356 17.31 14.0256C17.7 14.4156 18.33 14.4156 18.72 14.0256L19.37 13.3756C18.72 16.8656 15.66 19.5056 11.99 19.5056C10.22 19.5056 8.51002 18.8756 7.16002 17.7456C6.74002 17.3956 6.11002 17.4456 5.75002 17.8656C5.39002 18.2856 5.45002 18.9156 5.87002 19.2756C7.58002 20.7156 9.75002 21.5056 11.99 21.5056C16.84 21.5056 20.84 17.8656 21.42 13.1756L22.27 14.0556C22.47 14.2556 22.73 14.3656 22.99 14.3656C23.25 14.3656 23.49 14.2756 23.68 14.0856C24.08 13.7056 24.09 13.0656 23.7 12.6756H23.72ZM15.5 8.25564H8.50002C8.09002 8.25564 7.75002 8.59564 7.75002 9.00564C7.75002 9.41564 8.09002 9.75564 8.50002 9.75564H15.5C15.91 9.75564 16.25 9.41564 16.25 9.00564C16.25 8.59564 15.91 8.25564 15.5 8.25564Z" fill="currentColor"/>
</svg>
