<svg width="24" height="24" viewBox="0 0 24 24" fill="none" xmlns="http://www.w3.org/2000/svg">
<path d="M23.72 12.4356L21.25 9.88562C21.06 9.69562 20.81 9.58562 20.54 9.57562C20.24 9.57562 20.01 9.67562 19.82 9.86562L17.31 12.3756C16.92 12.7656 16.92 13.3956 17.31 13.7856C17.7 14.1756 18.33 14.1756 18.72 13.7856L19.37 13.1356C18.72 16.6256 15.66 19.2656 11.99 19.2656C10.22 19.2656 8.51002 18.6456 7.16002 17.5056C6.74002 17.1456 6.11002 17.2056 5.75002 17.6256C5.39002 18.0456 5.45002 18.6756 5.87002 19.0356C7.58002 20.4756 9.75002 21.2656 11.99 21.2656C16.84 21.2656 20.84 17.6256 21.42 12.9356L22.27 13.8156C22.47 14.0156 22.73 14.1256 22.99 14.1256C23.25 14.1256 23.49 14.0356 23.68 13.8456C24.08 13.4656 24.09 12.8256 23.7 12.4356H23.72ZM6.68002 9.74562C6.29002 9.35562 5.66002 9.35562 5.27002 9.74562L4.62002 10.3956C5.27002 6.90562 8.33002 4.25562 12 4.25562C13.77 4.25562 15.48 4.87562 16.83 6.01562C17.25 6.37562 17.88 6.31562 18.24 5.89562C18.6 5.47562 18.54 4.84562 18.12 4.48562C16.41 3.04562 14.24 2.25562 12 2.25562C7.15002 2.25562 3.15002 5.89562 2.57002 10.5856L1.72002 9.70562C1.34002 9.30561 0.700019 9.29562 0.310019 9.68562C-0.0899811 10.0656 -0.0999811 10.7056 0.290019 11.0956L2.76002 13.6456C2.95002 13.8356 3.20002 13.9456 3.47002 13.9556C3.74002 13.9556 3.99002 13.8456 4.18002 13.6656L6.69002 11.1556C7.08002 10.7656 7.08002 10.1356 6.69002 9.74562H6.68002Z" fill="currentColor"/>
</svg>
