<svg width="24" height="24" viewBox="0 0 24 24" fill="none" xmlns="http://www.w3.org/2000/svg">
<path d="M17.75 11.0056H6.25C5.7 11.0056 5.25 11.4556 5.25 12.0056C5.25 12.5556 5.7 13.0056 6.25 13.0056H17.75C18.3 13.0056 18.75 12.5556 18.75 12.0056C18.75 11.4556 18.3 11.0056 17.75 11.0056ZM19.08 3.58562C17.1 1.92562 14.59 1.00562 12 1.00562C5.93 1.00562 1 5.93562 1 12.0056C1 18.0756 5.93 23.0056 12 23.0056C18.07 23.0056 23 18.0756 23 12.0056C23 8.75562 21.57 5.68562 19.08 3.58562ZM12 21.0056C7.04 21.0056 3 16.9656 3 12.0056C3 7.04562 7.04 3.00562 12 3.00562C14.12 3.00562 16.17 3.75562 17.79 5.11562C19.83 6.83562 21 9.34562 21 12.0056C21 16.9656 16.96 21.0056 12 21.0056Z" fill="currentColor"/>
</svg>
