<svg width="24" height="24" viewBox="0 0 24 24" fill="none" xmlns="http://www.w3.org/2000/svg">
<path d="M19.08 3.58562C17.1 1.92562 14.59 1.00562 12 1.00562C5.93 1.00562 1 5.93562 1 12.0056C1 18.0756 5.93 23.0056 12 23.0056C18.07 23.0056 23 18.0756 23 12.0056C23 8.75562 21.57 5.68562 19.08 3.58562ZM12 21.0056C7.04 21.0056 3 16.9656 3 12.0056C3 7.04562 7.04 3.00562 12 3.00562C14.12 3.00562 16.17 3.75562 17.79 5.11562C19.83 6.83562 21 9.34562 21 12.0056C21 16.9656 16.96 21.0056 12 21.0056ZM16.79 7.90562L10.16 14.5356L7.2 11.5756C6.81 11.1856 6.18 11.1856 5.79 11.5756C5.4 11.9656 5.4 12.5956 5.79 12.9856L9.46 16.6556C9.66 16.8556 9.91 16.9456 10.17 16.9456C10.43 16.9456 10.68 16.8456 10.88 16.6556L18.21 9.32561C18.6 8.93562 18.6 8.30561 18.21 7.91562C17.82 7.52562 17.19 7.52562 16.8 7.91562L16.79 7.90562Z" fill="currentColor"/>
</svg>
