<svg width="24" height="24" viewBox="0 0 24 24" fill="none" xmlns="http://www.w3.org/2000/svg">
<path d="M12 24C8.42 24 5.5 21.08 5.5 17.5V4.67C5.5 2.09 7.59 0 10.17 0C12.75 0 14.84 2.09 14.84 4.67V16.68C14.84 18.24 13.57 19.51 12.01 19.51C10.45 19.51 9.18 18.24 9.18 16.68V6.5C9.18 5.95 9.63 5.5 10.18 5.5C10.73 5.5 11.18 5.95 11.18 6.5V16.67C11.18 17.13 11.55 17.5 12.01 17.5C12.47 17.5 12.84 17.13 12.84 16.67V4.67C12.84 3.2 11.64 2 10.17 2C8.7 2 7.5 3.2 7.5 4.67V17.5C7.5 19.98 9.52 22 12 22C14.48 22 16.5 19.98 16.5 17.5V6.5C16.5 5.95 16.95 5.5 17.5 5.5C18.05 5.5 18.5 5.95 18.5 6.5V17.5C18.5 21.08 15.58 24 12 24Z" fill="currentColor"/>
</svg>
