<svg width="24" height="24" viewBox="0 0 24 24" fill="none" xmlns="http://www.w3.org/2000/svg">
<path d="M19.08 3.58C17.1 1.92 14.59 1 12 1C5.93 1 1 5.93 1 12C1 18.07 5.93 23 12 23C18.07 23 23 18.07 23 12C23 8.75 21.57 5.68 19.08 3.58ZM12 21C7.04 21 3 16.96 3 12C3 7.04 7.04 3 12 3C14.12 3 16.17 3.75 17.79 5.11C19.83 6.83 21 9.34 21 12C21 16.96 16.96 21 12 21ZM16.79 13.61L13 11.42V5.58C13 5.03 12.55 4.58 12 4.58C11.45 4.58 11 5.03 11 5.58V11.99C11 11.99 11.02 12.07 11.02 12.11C11.02 12.18 11.04 12.25 11.06 12.31C11.08 12.37 11.11 12.42 11.14 12.48C11.17 12.54 11.2 12.59 11.25 12.64C11.3 12.69 11.35 12.73 11.4 12.77C11.43 12.8 11.46 12.83 11.49 12.85L15.78 15.33C15.94 15.42 16.11 15.46 16.28 15.46C16.63 15.46 16.96 15.28 17.15 14.96C17.43 14.48 17.26 13.87 16.78 13.59L16.79 13.61Z" fill="currentColor"/>
</svg>
