<svg width="24" height="24" viewBox="0 0 24 24" fill="none" xmlns="http://www.w3.org/2000/svg">
<path d="M13.41 12.0057L18.21 7.21567C18.6 6.82567 18.6 6.19567 18.21 5.80567C17.82 5.41567 17.19 5.41567 16.8 5.80567L12.01 10.5957L7.21 5.79567C6.82 5.40567 6.18 5.40567 5.79 5.79567C5.4 6.18567 5.4 6.82567 5.79 7.21567L10.58 12.0057L5.79 16.7957C5.4 17.1857 5.4 17.8157 5.79 18.2057C5.99 18.4057 6.24 18.4957 6.5 18.4957C6.76 18.4957 7.01 18.3957 7.21 18.2057L12 13.4157L16.79 18.2057C16.99 18.4057 17.24 18.4957 17.5 18.4957C17.76 18.4957 18.01 18.3957 18.21 18.2057C18.6 17.8157 18.6 17.1857 18.21 16.7957L13.42 12.0057H13.41Z" fill="currentColor"/>
</svg>
