<svg width="24" height="24" viewBox="0 0 24 24" fill="none" xmlns="http://www.w3.org/2000/svg">
<path d="M12 8.00562C13.1 8.00562 14 7.10562 14 6.00562C14 4.90562 13.1 4.00562 12 4.00562C10.9 4.00562 10 4.90562 10 6.00562C10 7.10562 10.9 8.00562 12 8.00562ZM12 10.0056C10.9 10.0056 10 10.9056 10 12.0056C10 13.1056 10.9 14.0056 12 14.0056C13.1 14.0056 14 13.1056 14 12.0056C14 10.9056 13.1 10.0056 12 10.0056ZM12 16.0056C10.9 16.0056 10 16.9056 10 18.0056C10 19.1056 10.9 20.0056 12 20.0056C13.1 20.0056 14 19.1056 14 18.0056C14 16.9056 13.1 16.0056 12 16.0056Z" fill="currentColor"/>
</svg>
