<svg width="24" height="24" viewBox="0 0 24 24" fill="none" xmlns="http://www.w3.org/2000/svg">
<path d="M11.24 15.3256C11.43 15.5156 11.68 15.6256 11.95 15.6356C12.23 15.6456 12.48 15.5356 12.67 15.3456L17.18 10.8356C17.57 10.4456 17.57 9.81562 17.18 9.42562C16.79 9.03562 16.16 9.03562 15.77 9.42562L13.01 12.1856V2.50562C13.01 1.95562 12.56 1.50562 12.01 1.50562C11.46 1.50562 11.01 1.95562 11.01 2.50562V12.1956L8.26 9.34562C8.06 9.14562 7.8 9.03562 7.54 9.03562C7.28 9.03562 7.04 9.12562 6.85 9.31562C6.45 9.69561 6.44 10.3356 6.83 10.7256L11.26 15.3156L11.24 15.3256ZM21.5 11.0056C20.95 11.0056 20.5 11.4556 20.5 12.0056V19.1256C20.5 19.8856 19.88 20.5056 19.12 20.5056H4.88C4.12 20.5056 3.5 19.8856 3.5 19.1256V12.0056C3.5 11.4556 3.05 11.0056 2.5 11.0056C1.95 11.0056 1.5 11.4556 1.5 12.0056V19.1256C1.5 20.9856 3.01 22.5056 4.88 22.5056H19.13C20.99 22.5056 22.51 20.9956 22.51 19.1256V12.0056C22.51 11.4556 22.06 11.0056 21.51 11.0056H21.5Z" fill="currentColor"/>
</svg>
