<svg width="24" height="24" viewBox="0 0 24 24" fill="none" xmlns="http://www.w3.org/2000/svg">
<g clip-path="url(#clip0_3944_80)">
<path d="M3.07 16.8379L4.34 15.3179C3.14 14.3179 2.31 13.1679 2.02 12.0479C2.76 9.17788 7.09 6.04788 11.99 6.04788C12.03 6.04788 12.07 6.04788 12.11 6.04788L13.69 4.16788C13.13 4.09788 12.56 4.04788 11.99 4.04788C6.45 4.05788 0.859998 7.69788 0.0199976 11.8579C-0.0100024 11.9879 -0.0100024 12.1179 0.0199976 12.2479C0.359998 13.9379 1.49 15.5279 3.07 16.8379ZM17.9 5.39788L19.79 3.14788C20.14 2.72788 20.09 2.09788 19.67 1.73788C19.25 1.38788 18.62 1.43788 18.26 1.85788L2.31 20.8679C1.96 21.2879 2.01 21.9179 2.43 22.2779C2.62 22.4379 2.85 22.5079 3.07 22.5079C3.36 22.5079 3.64 22.3879 3.84 22.1479L6.57 18.8979C8.27 19.6079 10.13 20.0479 12.01 20.0479C17.56 20.0479 23.16 16.3979 23.99 12.2479C24.02 12.1179 24.02 11.9879 23.99 11.8579C23.46 9.22788 21.02 6.81788 17.91 5.39788H17.9ZM13.76 10.3179C14.21 10.7679 14.5 11.3679 14.5 12.0479C14.5 13.4279 13.38 14.5479 12 14.5479C11.47 14.5479 11 14.3679 10.6 14.0879L13.77 10.3079L13.76 10.3179ZM12 18.0579C10.55 18.0579 9.16 17.7779 7.9 17.3179L9.31 15.6379C10.06 16.2079 10.99 16.5579 12 16.5579C14.48 16.5579 16.5 14.5379 16.5 12.0579C16.5 10.7579 15.94 9.60788 15.06 8.78788L16.58 6.97788C19.38 8.11788 21.49 10.1379 21.98 12.0579C21.24 14.9279 16.92 18.0579 12.01 18.0579H12Z" fill="currentColor"/>
</g>
<defs>
<clipPath id="clip0_3944_80">
<rect width="24" height="24" fill="white" transform="translate(0 0.00561523)"/>
</clipPath>
</defs>
</svg>
