<svg width="24" height="24" viewBox="0 0 24 24" fill="none" xmlns="http://www.w3.org/2000/svg">
<path d="M20.5 17.3856H19.2C18.78 16.1556 17.63 15.2656 16.25 15.2656C14.87 15.2656 13.72 16.1556 13.3 17.3856H3.5C2.95 17.3856 2.5 17.8356 2.5 18.3856C2.5 18.9356 2.95 19.3856 3.5 19.3856H13.3C13.72 20.6156 14.87 21.5056 16.25 21.5056C17.63 21.5056 18.78 20.6156 19.2 19.3856H20.5C21.05 19.3856 21.5 18.9356 21.5 18.3856C21.5 17.8356 21.05 17.3856 20.5 17.3856ZM16.25 19.5056C15.63 19.5056 15.13 19.0056 15.13 18.3856C15.13 17.7656 15.63 17.2656 16.25 17.2656C16.87 17.2656 17.37 17.7656 17.37 18.3856C17.37 19.0056 16.87 19.5056 16.25 19.5056ZM3.5 6.62562H13.3C13.72 7.85562 14.87 8.74562 16.25 8.74562C17.63 8.74562 18.78 7.85562 19.2 6.62562H20.5C21.05 6.62562 21.5 6.17562 21.5 5.62562C21.5 5.07562 21.05 4.62562 20.5 4.62562H19.2C18.78 3.39562 17.63 2.50562 16.25 2.50562C14.87 2.50562 13.72 3.39562 13.3 4.62562H3.5C2.95 4.62562 2.5 5.07562 2.5 5.62562C2.5 6.17562 2.95 6.62562 3.5 6.62562ZM16.25 4.50562C16.87 4.50562 17.37 5.00562 17.37 5.62562C17.37 6.24562 16.87 6.74562 16.25 6.74562C15.63 6.74562 15.13 6.24562 15.13 5.62562C15.13 5.00562 15.63 4.50562 16.25 4.50562ZM20.5 11.0056H10.7C10.28 9.77562 9.13 8.88562 7.75 8.88562C6.37 8.88562 5.22 9.77562 4.8 11.0056H3.5C2.95 11.0056 2.5 11.4556 2.5 12.0056C2.5 12.5556 2.95 13.0056 3.5 13.0056H4.8C5.22 14.2356 6.37 15.1256 7.75 15.1256C9.13 15.1256 10.28 14.2356 10.7 13.0056H20.5C21.05 13.0056 21.5 12.5556 21.5 12.0056C21.5 11.4556 21.05 11.0056 20.5 11.0056ZM7.75 13.1256C7.13 13.1256 6.63 12.6256 6.63 12.0056C6.63 11.3856 7.13 10.8856 7.75 10.8856C8.37 10.8856 8.87 11.3856 8.87 12.0056C8.87 12.6256 8.37 13.1256 7.75 13.1256Z" fill="currentColor"/>
</svg>
