<svg width="24" height="24" viewBox="0 0 24 24" fill="none" xmlns="http://www.w3.org/2000/svg">
<g clip-path="url(#clip0_3627_141)">
<path d="M2 17.42V4.75003C2 4.43003 2.26 4.17003 2.58 4.17003L7.73 4.20003L9.72 8.10003C10.07 8.79003 10.78 9.22003 11.55 9.22003H18.99V12.49H20.99V6.43003C20.99 5.05003 19.87 3.93003 18.49 3.93003H9.84L9.51 3.28003C9.16 2.59003 8.45 2.16003 7.68 2.16003H2.58C1.16 2.17003 0 3.33003 0 4.75003V17.42C0 18.84 1.16 20 2.58 20H12V18H2.58C2.26 18 2 17.74 2 17.42ZM18.5 5.94003C18.78 5.94003 19 6.16003 19 6.44003V7.22003L11.51 7.20003L10.87 5.95003H18.5V5.94003ZM23 18H20V15C20 14.45 19.55 14 19 14C18.45 14 18 14.45 18 15V18H15C14.45 18 14 18.45 14 19C14 19.55 14.45 20 15 20H18V23C18 23.55 18.45 24 19 24C19.55 24 20 23.55 20 23V20H23C23.55 20 24 19.55 24 19C24 18.45 23.55 18 23 18Z" fill="currentColor"/>
</g>
<defs>
<clipPath id="clip0_3627_141">
<rect width="24" height="24" fill="white"/>
</clipPath>
</defs>
</svg>
