<svg width="24" height="24" viewBox="0 0 24 24" fill="none" xmlns="http://www.w3.org/2000/svg">
<path d="M20 4.85496H11.35L11.02 4.20496C10.67 3.51496 9.96 3.08496 9.19 3.08496H4.08C2.66 3.08496 1.5 4.24496 1.5 5.66496V18.335C1.5 19.755 2.66 20.915 4.08 20.915H19.91C21.33 20.915 22.49 19.755 22.49 18.335V7.35496C22.49 5.97496 21.37 4.85496 19.99 4.85496H20ZM20.5 18.335C20.5 18.655 20.24 18.915 19.92 18.915H4.08C3.76 18.915 3.5 18.655 3.5 18.335V5.66496C3.5 5.34496 3.76 5.08496 4.08 5.08496L9.23 5.11496L11.22 9.01496C11.57 9.70496 12.28 10.135 13.05 10.135H20.49V18.335H20.5ZM20.5 8.13496L13.01 8.11496L12.37 6.86496H20C20.28 6.86496 20.5 7.08496 20.5 7.36496V8.14496V8.13496Z" fill="currentColor"/>
</svg>
