<svg width="24" height="24" viewBox="0 0 24 24" fill="none" xmlns="http://www.w3.org/2000/svg">
<g clip-path="url(#clip0_3790_78)">
<path d="M23 21.5H2V1.5C2 0.95 1.55 0.5 1 0.5C0.45 0.5 0 0.95 0 1.5V22.5C0 23.05 0.45 23.5 1 23.5H23C23.55 23.5 24 23.05 24 22.5C24 21.95 23.55 21.5 23 21.5ZM6.85 15.67C6.02 15.67 5.35 16.34 5.35 17.17C5.35 18 6.02 18.67 6.85 18.67H13.85C14.68 18.67 15.35 18 15.35 17.17C15.35 16.34 14.68 15.67 13.85 15.67H6.85ZM7.91 10.97C7.91 11.8 8.58 12.47 9.41 12.47H20.41C21.24 12.47 21.91 11.8 21.91 10.97C21.91 10.14 21.24 9.47 20.41 9.47H9.41C8.58 9.47 7.91 10.14 7.91 10.97ZM5.85 6.67H15.85C16.68 6.67 17.35 6 17.35 5.17C17.35 4.34 16.68 3.67 15.85 3.67H5.85C5.02 3.67 4.35 4.34 4.35 5.17C4.35 6 5.02 6.67 5.85 6.67Z" fill="currentColor"/>
</g>
<defs>
<clipPath id="clip0_3790_78">
<rect width="24" height="24" fill="white"/>
</clipPath>
</defs>
</svg>
