<svg width="24" height="24" viewBox="0 0 24 24" fill="none" xmlns="http://www.w3.org/2000/svg">
<path d="M23 2.25562H1C0.45 2.25562 0 2.70562 0 3.25562V7.25562C0 7.80562 0.45 8.25562 1 8.25562H1.5V20.7556C1.5 21.3056 1.95 21.7556 2.5 21.7556H21.5C22.05 21.7556 22.5 21.3056 22.5 20.7556V8.25562H23C23.55 8.25562 24 7.80562 24 7.25562V3.25562C24 2.70562 23.55 2.25562 23 2.25562ZM2 4.25562H22V6.25562H2V4.25562ZM7.5 14.8356H16.5V16.6656H7.5V14.8356ZM16.5 13.3356H7.5V11.7556H16.5V13.3356ZM7.5 19.7556V18.1756H16.5V19.7556H7.5ZM20.5 19.7556H18.5V10.7556C18.5 10.2056 18.05 9.75562 17.5 9.75562H6.5C5.95 9.75562 5.5 10.2056 5.5 10.7556V19.7556H3.5V8.25562H20.5V19.7556Z" fill="currentColor"/>
</svg>
