<svg width="24" height="24" viewBox="0 0 24 24" fill="none" xmlns="http://www.w3.org/2000/svg">
<path d="M24 13.9907C24 13.1707 23.62 12.4507 23.03 11.9707C23.29 11.5607 23.45 11.0807 23.45 10.5707C23.45 9.13067 22.28 7.96067 20.84 7.96067H16.02C16.19 6.20067 16.3 2.99067 15.06 1.74067C13.63 0.290668 11.87 0.640668 11.14 1.03067C10.84 1.19067 10.66 1.49067 10.66 1.83067V5.21067L8.1 10.2007C7.99 10.4207 7.77 10.5507 7.52 10.5807C7.46 9.80067 6.82 9.19067 6.03 9.19067H1.51C0.68 9.19067 0 9.87067 0 10.7007V21.8307C0 22.6607 0.68 23.3407 1.51 23.3407H6.03C6.86 23.3407 7.54 22.6607 7.54 21.8307V21.7707C8.61 22.4207 9.83 22.7807 11.09 22.7807H19C20.35 22.7807 21.44 21.6807 21.44 20.3407C21.44 20.0307 21.38 19.7407 21.27 19.4707C22.1 19.0807 22.68 18.2407 22.68 17.2607C22.68 16.9407 22.61 16.6407 22.5 16.3607C23.38 15.9407 24 15.0507 24 14.0107V13.9907ZM21.39 14.8007H18.83C18.33 14.8007 17.93 15.2007 17.93 15.7007C17.93 16.2007 18.33 16.6007 18.83 16.6007H20.25C20.6 16.6007 20.89 16.8907 20.89 17.2407C20.89 17.5907 20.61 17.8807 20.25 17.8807H18.09C17.59 17.8807 17.19 18.2807 17.19 18.7807C17.19 19.2807 17.59 19.6807 18.09 19.6807H19.01C19.36 19.6807 19.65 19.9707 19.65 20.3207C19.65 20.6707 19.36 20.9607 19.01 20.9607H11.1C10.08 20.9607 9.09 20.6607 8.24 20.0807L7.54 19.6107V12.4007C8.46 12.3707 9.29 11.8607 9.72 11.0307L12.38 5.85067C12.45 5.72067 12.48 5.58067 12.48 5.44067V2.50067C12.83 2.46067 13.31 2.54067 13.78 3.01067C14.38 3.62067 14.44 6.46067 14.11 8.73067C14.07 8.99067 14.15 9.25067 14.32 9.45067C14.49 9.65067 14.74 9.76067 15 9.76067H20.84C21.28 9.76067 21.65 10.1207 21.65 10.5707C21.65 11.0207 21.29 11.3807 20.84 11.3807H19.41C18.91 11.3807 18.51 11.7807 18.51 12.2807C18.51 12.7807 18.91 13.1807 19.41 13.1807H21.39C21.84 13.1807 22.2 13.5407 22.2 13.9907C22.2 14.4407 21.84 14.8007 21.39 14.8007Z" fill="currentColor"/>
</svg>
