<svg width="24" height="24" viewBox="0 0 24 24" fill="none" xmlns="http://www.w3.org/2000/svg">
<path d="M12 2.25562C9.59 2.25562 7.3 3.17562 5.53 4.73562L5.55 3.64562C5.55 3.09562 5.12 2.63562 4.57 2.62562C4 2.59562 3.56 3.05562 3.55 3.60562L3.48 7.49562C3.48 7.76561 3.58 8.02562 3.77 8.21562C3.96 8.40562 4.22 8.51562 4.48 8.51562H8.37C8.92 8.51562 9.37 8.06562 9.37 7.51562C9.37 6.96562 8.92 6.51562 8.37 6.51562H6.53C7.97 5.08562 9.93 4.24562 12 4.24562C16.27 4.24562 19.75 7.72562 19.75 11.9956C19.75 16.2656 16.27 19.7456 12 19.7456C7.73 19.7456 4.25 16.2656 4.25 11.9956C4.25 11.4456 3.8 10.9956 3.25 10.9956C2.7 10.9956 2.25 11.4456 2.25 11.9956C2.25 17.3756 6.62 21.7456 12 21.7456C17.38 21.7456 21.75 17.3756 21.75 11.9956C21.75 6.61561 17.38 2.25562 12 2.25562ZM12 6.52562C11.45 6.52562 11 6.97562 11 7.52562V13.0256C11 13.5756 11.45 14.0256 12 14.0256H16.25C16.8 14.0256 17.25 13.5756 17.25 13.0256C17.25 12.4756 16.8 12.0256 16.25 12.0256H13V7.52562C13 6.97562 12.55 6.52562 12 6.52562Z" fill="currentColor"/>
</svg>
