<svg width="24" height="24" viewBox="0 0 24 24" fill="none" xmlns="http://www.w3.org/2000/svg">
<path d="M12.12 9.78H11.87C11.26 9.78 10.76 10.28 10.76 10.89V17.57C10.76 18.18 11.26 18.68 11.87 18.68H12.12C12.73 18.68 13.23 18.18 13.23 17.57V10.89C13.23 10.28 12.73 9.78 12.12 9.78ZM12 5.33C11.15 5.33 10.46 6.02 10.46 6.87C10.46 7.72 11.15 8.41 12 8.41C12.85 8.41 13.54 7.72 13.54 6.87C13.54 6.02 12.85 5.33 12 5.33ZM19.08 3.58C17.1 1.92 14.59 1 12 1C5.93 1 1 5.93 1 12C1 18.07 5.93 23 12 23C18.07 23 23 18.07 23 12C23 8.75 21.57 5.68 19.08 3.58ZM12 21C7.04 21 3 16.96 3 12C3 7.04 7.04 3 12 3C14.12 3 16.17 3.75 17.79 5.11C19.83 6.83 21 9.34 21 12C21 16.96 16.96 21 12 21Z" fill="currentColor"/>
</svg>
