<svg width="24" height="24" viewBox="0 0 24 24" fill="none" xmlns="http://www.w3.org/2000/svg">
<g clip-path="url(#clip0_2951_840)">
<path d="M1 17.64C0.45 17.64 0 18.09 0 18.64C0 19.19 0.45 19.64 1 19.64H7.43C7.19 19 7.02 18.33 6.92 17.64H1ZM1 4.64001H17C17.55 4.64001 18 4.19001 18 3.64001C18 3.09001 17.55 2.64001 17 2.64001H1C0.45 2.64001 0 3.09001 0 3.64001C0 4.19001 0.45 4.64001 1 4.64001ZM1 9.64001H9.57C10.4 8.80001 11.38 8.12001 12.47 7.64001H1C0.45 7.64001 0 8.09001 0 8.64001C0 9.19001 0.45 9.64001 1 9.64001ZM0 13.64C0 14.19 0.45 14.64 1 14.64H6.98C7.1 13.95 7.3 13.27 7.56 12.64H1C0.45 12.64 0 13.09 0 13.64ZM20.3 13.62C19.91 13.23 19.28 13.23 18.89 13.62L15.23 17.28L13.76 15.81C13.37 15.42 12.74 15.42 12.35 15.81C11.96 16.2 11.96 16.83 12.35 17.22L14.53 19.4C14.73 19.6 14.98 19.69 15.24 19.69C15.5 19.69 15.75 19.59 15.95 19.4L20.31 15.04C20.7 14.65 20.7 14.02 20.31 13.63L20.3 13.62ZM21.26 10.44C19.88 9.28001 18.13 8.64001 16.32 8.64001C12.09 8.64001 8.64 12.09 8.64 16.32C8.64 20.55 12.09 24 16.32 24C20.55 24 24 20.55 24 16.32C24 14.05 23 11.9 21.26 10.44ZM16.32 22C13.19 22 10.64 19.45 10.64 16.32C10.64 13.19 13.19 10.64 16.32 10.64C17.66 10.64 18.95 11.11 19.97 11.97C21.26 13.05 22 14.64 22 16.32C22 19.45 19.45 22 16.32 22Z" fill="currentColor"/>
</g>
<defs>
<clipPath id="clip0_2951_840">
<rect width="24" height="24" fill="white"/>
</clipPath>
</defs>
</svg>
