<svg width="24" height="24" viewBox="0 0 24 24" fill="none" xmlns="http://www.w3.org/2000/svg">
<path d="M18.5 1H5.5C3.85 1 2.5 2.35 2.5 4V20C2.5 21.65 3.85 23 5.5 23H18.5C20.15 23 21.5 21.65 21.5 20V4C21.5 2.35 20.15 1 18.5 1ZM19.5 20C19.5 20.55 19.05 21 18.5 21H5.5C4.95 21 4.5 20.55 4.5 20V4C4.5 3.45 4.95 3 5.5 3H18.5C19.05 3 19.5 3.45 19.5 4V20ZM16.75 15H7.25C6.7 15 6.25 15.45 6.25 16C6.25 16.55 6.7 17 7.25 17H16.75C17.3 17 17.75 16.55 17.75 16C17.75 15.45 17.3 15 16.75 15ZM16.75 7H7.25C6.7 7 6.25 7.45 6.25 8C6.25 8.55 6.7 9 7.25 9H16.75C17.3 9 17.75 8.55 17.75 8C17.75 7.45 17.3 7 16.75 7ZM16.75 11H7.25C6.7 11 6.25 11.45 6.25 12C6.25 12.55 6.7 13 7.25 13H16.75C17.3 13 17.75 12.55 17.75 12C17.75 11.45 17.3 11 16.75 11Z" fill="currentColor"/>
</svg>
