<svg width="24" height="24" viewBox="0 0 24 24" fill="none" xmlns="http://www.w3.org/2000/svg">
<path d="M15.63 12.0556C15.64 11.7756 15.53 11.5256 15.34 11.3356L10.83 6.82562C10.44 6.43562 9.81 6.43562 9.42 6.82562C9.03 7.21562 9.03 7.84562 9.42 8.23562L12.18 10.9956H2.5C1.95 10.9956 1.5 11.4456 1.5 11.9956C1.5 12.5456 1.95 12.9956 2.5 12.9956H12.19L9.34 15.7456C9.14 15.9456 9.03 16.2056 9.03 16.4656C9.03 16.7256 9.12 16.9656 9.31 17.1556C9.69 17.5556 10.33 17.5656 10.72 17.1756L15.31 12.7456C15.5 12.5556 15.61 12.3056 15.62 12.0356L15.63 12.0556ZM19.12 1.50562H12C11.45 1.50562 11 1.95562 11 2.50562C11 3.05562 11.45 3.50562 12 3.50562H19.12C19.88 3.50562 20.5 4.12562 20.5 4.88562V19.1356C20.5 19.8956 19.88 20.5156 19.12 20.5156H12C11.45 20.5156 11 20.9656 11 21.5156C11 22.0656 11.45 22.5156 12 22.5156H19.12C20.98 22.5156 22.5 21.0056 22.5 19.1356V4.88562C22.5 3.02562 20.99 1.50562 19.12 1.50562Z" fill="currentColor"/>
</svg>
