<svg width="24" height="24" viewBox="0 0 24 24" fill="none" xmlns="http://www.w3.org/2000/svg">
<path d="M22.21 11.3356L17.7 6.82562C17.31 6.43562 16.68 6.43562 16.29 6.82562C15.9 7.21562 15.9 7.84562 16.29 8.23562L19.05 10.9956H9.37C8.82 10.9956 8.37 11.4456 8.37 11.9956C8.37 12.5456 8.82 12.9956 9.37 12.9956H19.06L16.21 15.7456C16.01 15.9456 15.9 16.2056 15.9 16.4656C15.9 16.7256 15.99 16.9656 16.18 17.1556C16.56 17.5556 17.2 17.5656 17.59 17.1756L22.18 12.7456C22.37 12.5556 22.48 12.3056 22.49 12.0356C22.5 11.7556 22.39 11.5056 22.2 11.3156L22.21 11.3356ZM12 20.5056H4.88C4.12 20.5056 3.5 19.8856 3.5 19.1256V4.88562C3.5 4.12562 4.12 3.50562 4.88 3.50562H12C12.55 3.50562 13 3.05562 13 2.50562C13 1.95562 12.55 1.50562 12 1.50562H4.88C3.01 1.50562 1.5 3.01562 1.5 4.88562V19.1356C1.5 20.9956 3.01 22.5156 4.88 22.5156H12C12.55 22.5156 13 22.0656 13 21.5156C13 20.9656 12.55 20.5156 12 20.5156V20.5056Z" fill="currentColor"/>
</svg>
