<svg width="24" height="24" viewBox="0 0 24 24" fill="none" xmlns="http://www.w3.org/2000/svg">
<path d="M8.5 2.50562H3.5C2.95 2.50562 2.5 2.95562 2.5 3.50562V8.50562C2.5 9.05562 2.95 9.50562 3.5 9.50562C4.05 9.50562 4.5 9.05562 4.5 8.50562V4.50562H8.5C9.05 4.50562 9.5 4.05562 9.5 3.50562C9.5 2.95562 9.05 2.50562 8.5 2.50562ZM8.5 19.5056H4.5V15.5056C4.5 14.9556 4.05 14.5056 3.5 14.5056C2.95 14.5056 2.5 14.9556 2.5 15.5056V20.5056C2.5 21.0556 2.95 21.5056 3.5 21.5056H8.5C9.05 21.5056 9.5 21.0556 9.5 20.5056C9.5 19.9556 9.05 19.5056 8.5 19.5056ZM20.5 2.50562H15.5C14.95 2.50562 14.5 2.95562 14.5 3.50562C14.5 4.05562 14.95 4.50562 15.5 4.50562H19.5V8.50562C19.5 9.05562 19.95 9.50562 20.5 9.50562C21.05 9.50562 21.5 9.05562 21.5 8.50562V3.50562C21.5 2.95562 21.05 2.50562 20.5 2.50562ZM20.5 14.5056C19.95 14.5056 19.5 14.9556 19.5 15.5056V19.5056H15.5C14.95 19.5056 14.5 19.9556 14.5 20.5056C14.5 21.0556 14.95 21.5056 15.5 21.5056H20.5C21.05 21.5056 21.5 21.0556 21.5 20.5056V15.5056C21.5 14.9556 21.05 14.5056 20.5 14.5056Z" fill="currentColor"/>
</svg>
