<svg width="24" height="24" viewBox="0 0 24 24" fill="none" xmlns="http://www.w3.org/2000/svg">
<path d="M7 8.50562C6.17 8.50562 5.5 9.17562 5.5 10.0056C5.5 10.8356 6.17 11.5056 7 11.5056C7.83 11.5056 8.5 10.8356 8.5 10.0056C8.5 9.17562 7.83 8.50562 7 8.50562ZM12 8.50562C11.17 8.50562 10.5 9.17562 10.5 10.0056C10.5 10.8356 11.17 11.5056 12 11.5056C12.83 11.5056 13.5 10.8356 13.5 10.0056C13.5 9.17562 12.83 8.50562 12 8.50562ZM17 8.50562C16.17 8.50562 15.5 9.17562 15.5 10.0056C15.5 10.8356 16.17 11.5056 17 11.5056C17.83 11.5056 18.5 10.8356 18.5 10.0056C18.5 9.17562 17.83 8.50562 17 8.50562ZM20 1.50562H4C1.79 1.50562 0 3.29562 0 5.50562V14.5056C0 16.7156 1.79 18.5056 4 18.5056H8.5L11.2 22.1056C11.39 22.3556 11.68 22.5056 12 22.5056C12.32 22.5056 12.61 22.3556 12.8 22.1056L15.5 18.5056H20C22.21 18.5056 24 16.7156 24 14.5056V5.50562C24 3.29562 22.21 1.50562 20 1.50562ZM22 14.5056C22 15.6056 21.1 16.5056 20 16.5056H15C14.69 16.5056 14.39 16.6556 14.2 16.9056L12 19.8356L9.8 16.9056C9.61 16.6556 9.32 16.5056 9 16.5056H4C2.9 16.5056 2 15.6056 2 14.5056V5.50562C2 4.40562 2.9 3.50562 4 3.50562H20C21.1 3.50562 22 4.40562 22 5.50562V14.5056Z" fill="currentColor"/>
</svg>
