<svg width="24" height="24" viewBox="0 0 24 24" fill="none" xmlns="http://www.w3.org/2000/svg">
<path d="M20.5 14.5056H15.5C14.95 14.5056 14.5 14.9556 14.5 15.5056V20.5056C14.5 21.0556 14.95 21.5056 15.5 21.5056C16.05 21.5056 16.5 21.0556 16.5 20.5056V16.5056H20.5C21.05 16.5056 21.5 16.0556 21.5 15.5056C21.5 14.9556 21.05 14.5056 20.5 14.5056ZM15.5 9.50562H20.5C21.05 9.50562 21.5 9.05562 21.5 8.50562C21.5 7.95562 21.05 7.50562 20.5 7.50562H16.5V3.50562C16.5 2.95562 16.05 2.50562 15.5 2.50562C14.95 2.50562 14.5 2.95562 14.5 3.50562V8.50562C14.5 9.05562 14.95 9.50562 15.5 9.50562ZM8.5 14.5056H3.5C2.95 14.5056 2.5 14.9556 2.5 15.5056C2.5 16.0556 2.95 16.5056 3.5 16.5056H7.5V20.5056C7.5 21.0556 7.95 21.5056 8.5 21.5056C9.05 21.5056 9.5 21.0556 9.5 20.5056V15.5056C9.5 14.9556 9.05 14.5056 8.5 14.5056ZM8.5 2.50562C7.95 2.50562 7.5 2.95562 7.5 3.50562V7.50562H3.5C2.95 7.50562 2.5 7.95562 2.5 8.50562C2.5 9.05562 2.95 9.50562 3.5 9.50562H8.5C9.05 9.50562 9.5 9.05562 9.5 8.50562V3.50562C9.5 2.95562 9.05 2.50562 8.5 2.50562Z" fill="currentColor"/>
</svg>
