<svg width="24" height="24" viewBox="0 0 24 24" fill="none" xmlns="http://www.w3.org/2000/svg">
<path d="M19.08 3.58562C17.1 1.92562 14.59 1.00562 12 1.00562C5.93 1.00562 1 5.93562 1 12.0056C1 18.0756 5.93 23.0056 12 23.0056C18.07 23.0056 23 18.0756 23 12.0056C23 8.75562 21.57 5.68562 19.08 3.58562ZM12 21.0056C7.04 21.0056 3 16.9656 3 12.0056C3 7.04562 7.04 3.00562 12 3.00562C14.12 3.00562 16.17 3.75562 17.79 5.11562C19.83 6.83562 21 9.34562 21 12.0056C21 16.9656 16.96 21.0056 12 21.0056ZM16.16 6.50562C15.74 6.14562 15.11 6.18562 14.75 6.59562L12 9.73561L9.25 6.59562C8.89 6.17562 8.25 6.13562 7.84 6.50562C7.42 6.86562 7.38 7.50562 7.75 7.91562L10.33 10.8656H8.67C8.12 10.8656 7.67 11.3156 7.67 11.8656C7.67 12.4156 8.12 12.8656 8.67 12.8656H11V14.0756H8.67C8.12 14.0756 7.67 14.5256 7.67 15.0756C7.67 15.6256 8.12 16.0756 8.67 16.0756H11V17.7556C11 18.3056 11.45 18.7556 12 18.7556C12.55 18.7556 13 18.3056 13 17.7556V16.0756H15.33C15.88 16.0756 16.33 15.6256 16.33 15.0756C16.33 14.5256 15.88 14.0756 15.33 14.0756H13V12.8656H15.33C15.88 12.8656 16.33 12.4156 16.33 11.8656C16.33 11.3156 15.88 10.8656 15.33 10.8656H13.67L16.25 7.91562C16.61 7.49562 16.57 6.86562 16.16 6.50562Z" fill="currentColor"/>
</svg>
