<svg width="24" height="24" viewBox="0 0 24 24" fill="none" xmlns="http://www.w3.org/2000/svg">
<path d="M18.18 16.55V3.08997C18.18 1.43997 16.83 0.0899658 15.18 0.0899658H4.45001C2.80001 0.0899658 1.45001 1.43997 1.45001 3.08997V16.54C1.45001 18.19 2.80001 19.54 4.45001 19.54H15.18C16.83 19.54 18.18 18.19 18.18 16.54V16.55ZM3.45001 16.55V3.08997C3.45001 2.53997 3.90001 2.08997 4.45001 2.08997H15.18C15.73 2.08997 16.18 2.53997 16.18 3.08997V16.54C16.18 17.09 15.73 17.54 15.18 17.54H4.45001C3.90001 17.54 3.45001 17.09 3.45001 16.54V16.55ZM21.55 5.54997C21 5.54997 20.55 5.99997 20.55 6.54997V19.64C20.55 20.89 19.53 21.91 18.28 21.91H7.36001C6.81001 21.91 6.36001 22.36 6.36001 22.91C6.36001 23.46 6.81001 23.91 7.36001 23.91H18.27C20.63 23.91 22.54 21.99 22.54 19.64V6.54997C22.54 5.99997 22.09 5.54997 21.54 5.54997H21.55ZM13.82 12.57H5.82001C5.41001 12.57 5.07001 12.91 5.07001 13.32C5.07001 13.73 5.41001 14.07 5.82001 14.07H13.82C14.23 14.07 14.57 13.73 14.57 13.32C14.57 12.91 14.23 12.57 13.82 12.57ZM13.82 5.56997H5.82001C5.41001 5.56997 5.07001 5.90997 5.07001 6.31997C5.07001 6.72997 5.41001 7.06997 5.82001 7.06997H13.82C14.23 7.06997 14.57 6.72997 14.57 6.31997C14.57 5.90997 14.23 5.56997 13.82 5.56997ZM13.82 9.06997H5.82001C5.41001 9.06997 5.07001 9.40997 5.07001 9.81997C5.07001 10.23 5.41001 10.57 5.82001 10.57H13.82C14.23 10.57 14.57 10.23 14.57 9.81997C14.57 9.40997 14.23 9.06997 13.82 9.06997Z" fill="currentColor"/>
</svg>
