<svg width="24" height="24" viewBox="0 0 24 24" fill="none" xmlns="http://www.w3.org/2000/svg">
<g clip-path="url(#clip0_3096_476)">
<path d="M16.8866 6.60723C17.0063 6.06849 16.9963 5.51976 16.8866 5.00097H19.1513C19.6002 5.00097 19.9694 5.37011 19.9694 5.81907V12.1643H21.9647V5.81907C21.9647 4.27267 20.7077 3.00562 19.1513 3.00562H16.1183C15.6095 3.00562 15.1506 3.26501 14.8812 3.69401C14.6218 4.11304 14.5919 4.63183 14.8114 5.07081C14.981 5.41002 15.0309 5.79911 14.9411 6.18821C14.8014 6.85665 14.2327 7.3954 13.5643 7.51512C13.0355 7.60491 12.5367 7.46524 12.1476 7.136C11.7585 6.80677 11.539 6.32788 11.539 5.81907C11.539 5.55967 11.5989 5.32023 11.7086 5.09076C11.9281 4.64181 11.8982 4.11304 11.6388 3.69401C11.3694 3.26501 10.9105 3.01559 10.4116 3.01559H7.3687C5.8223 3.01559 4.55525 4.27267 4.55525 5.82904V8.55271C4.03646 8.43299 3.48774 8.43299 2.94899 8.55271C1.46245 8.84203 0.315119 10.0392 0.0557227 11.5158C-0.133836 12.6133 0.165467 13.7207 0.873819 14.5587C1.76175 15.6063 3.21836 16.0952 4.5353 15.7859V18.5095C4.5353 20.0559 5.79237 21.323 7.34875 21.323H12.0279V19.3276H7.34875C6.8998 19.3276 6.53065 18.9585 6.53065 18.5095V15.0177C6.53065 14.5188 6.27126 14.0499 5.85223 13.7905C5.61279 13.6409 5.35339 13.571 5.08402 13.571C4.86453 13.571 4.65502 13.6209 4.44551 13.7207C3.75711 14.0499 2.88913 13.8604 2.40027 13.2717C2.07103 12.8727 1.93136 12.3738 2.02115 11.855C2.13089 11.1866 2.67962 10.6279 3.33808 10.4782C3.72718 10.3984 4.1063 10.4383 4.45548 10.6079C4.89446 10.8274 5.41326 10.7975 5.83228 10.5381C6.26128 10.2687 6.52068 9.7998 6.52068 9.29099V5.79911C6.52068 5.35016 6.88982 4.98102 7.33877 4.98102H9.6035C9.54364 5.25039 9.51371 5.51976 9.51371 5.79911C9.51371 6.89656 9.9926 7.93415 10.8306 8.6425C11.6687 9.35085 12.7861 9.65015 13.8736 9.46059C15.3501 9.21117 16.5473 8.05387 16.8666 6.58728L16.8866 6.60723ZM23.0023 18.1504H20.0093V15.1573C20.0093 14.6086 19.5603 14.1597 19.0116 14.1597C18.4629 14.1597 18.0139 14.6086 18.0139 15.1573V18.1504H15.0209C14.4722 18.1504 14.0232 18.5993 14.0232 19.1481C14.0232 19.6968 14.4722 20.1457 15.0209 20.1457H18.0139V23.1388C18.0139 23.6875 18.4629 24.1364 19.0116 24.1364C19.5603 24.1364 20.0093 23.6875 20.0093 23.1388V20.1457H23.0023C23.551 20.1457 24 19.6968 24 19.1481C24 18.5993 23.551 18.1504 23.0023 18.1504Z" fill="currentColor"/>
</g>
<defs>
<clipPath id="clip0_3096_476">
<rect width="24" height="24" fill="white" transform="translate(0 0.00561523)"/>
</clipPath>
</defs>
</svg>
