<svg width="24" height="24" viewBox="0 0 24 24" fill="none" xmlns="http://www.w3.org/2000/svg">
<path d="M19 8.8H18V7C18 3.69 15.31 1 12 1C8.69 1 6 3.69 6 7V8.8H5C3.35 8.8 2 10.15 2 11.8V20C2 21.65 3.35 23 5 23H19C20.65 23 22 21.65 22 20V11.8C22 10.15 20.65 8.8 19 8.8ZM8 7C8 4.79 9.79 3 12 3C14.21 3 16 4.79 16 7V8.8H8V7ZM20 20C20 20.55 19.55 21 19 21H5C4.45 21 4 20.55 4 20V11.8C4 11.25 4.45 10.8 5 10.8H19C19.55 10.8 20 11.25 20 11.8V20ZM12 12.48C10.8 12.47 9.81 13.43 9.8 14.64C9.8 15.52 10.32 16.32 11.13 16.67L10.8 19.32H13.21L12.88 16.67C13.99 16.2 14.51 14.92 14.04 13.81C13.7 13 12.89 12.47 12.01 12.48H12Z" fill="currentColor"/>
</svg>
