<svg width="24" height="24" viewBox="0 0 24 24" fill="none" xmlns="http://www.w3.org/2000/svg">
<path d="M21.77 6.58556L17.42 2.23556C16.45 1.26556 14.87 1.26556 13.9 2.23556L4.27 11.8656C4.02 12.1156 3.84 12.4256 3.75 12.7756L1.53 21.2556C1.44 21.5956 1.53 21.9656 1.79 22.2156C1.98 22.4056 2.23 22.5056 2.49 22.5056C2.57 22.5056 2.66 22.4956 2.74 22.4756L11.23 20.2556C11.57 20.1656 11.89 19.9856 12.14 19.7356L21.77 10.1056C22.24 9.63556 22.5 9.00556 22.5 8.34556C22.5 7.68556 22.24 7.05556 21.77 6.58556ZM6.08 19.5456L4.46 17.9256L5.3 14.6956L9.3 18.6956L6.07 19.5356L6.08 19.5456ZM20.36 8.69556L11.25 17.8056L6.2 12.7556L15.31 3.64556C15.5 3.45556 15.82 3.45556 16.02 3.64556L20.37 7.99556C20.5 8.12556 20.52 8.27556 20.52 8.34556C20.52 8.41556 20.5 8.57556 20.37 8.69556H20.36Z" fill="currentColor"/>
</svg>
