<svg width="24" height="24" viewBox="0 0 24 24" fill="none" xmlns="http://www.w3.org/2000/svg">
<path d="M16.03 10.075C15.6 10.075 15.24 10.425 15.24 10.865C15.24 11.305 15.59 11.655 16.03 11.655C16.47 11.655 16.82 11.305 16.82 10.865C16.82 10.425 16.47 10.075 16.03 10.075ZM20 7.32495H18.77V4.07495C18.77 2.97495 17.87 2.07495 16.77 2.07495H7.23C6.13 2.07495 5.23 2.97495 5.23 4.07495V7.32495H4C2.62 7.32495 1.5 8.44495 1.5 9.82495V16.275C1.5 17.655 2.62 18.775 4 18.775H5.23V19.925C5.23 21.025 6.13 21.925 7.23 21.925H16.78C17.88 21.925 18.78 21.025 18.78 19.925V18.775H20.01C21.39 18.775 22.51 17.655 22.51 16.275V9.82495C22.51 8.44495 21.39 7.32495 20.01 7.32495H20ZM7.23 4.07495H16.78V7.32495H7.23V4.07495ZM7.23 19.925V15.105H16.78V19.925H7.23ZM20.5 16.275C20.5 16.555 20.28 16.775 20 16.775H18.77V13.105H5.23V16.775H4C3.72 16.775 3.5 16.555 3.5 16.275V9.82495C3.5 9.54495 3.72 9.32495 4 9.32495H20C20.28 9.32495 20.5 9.54495 20.5 9.82495V16.275ZM18.34 10.075C17.91 10.075 17.55 10.425 17.55 10.865C17.55 11.305 17.9 11.655 18.34 11.655C18.78 11.655 19.13 11.305 19.13 10.865C19.13 10.425 18.78 10.075 18.34 10.075Z" fill="currentColor"/>
</svg>
