<svg width="24" height="24" viewBox="0 0 24 24" fill="none" xmlns="http://www.w3.org/2000/svg">
<path d="M12.22 5.33562C10.84 5.33562 9.77 5.65562 8.95 6.30562C8.36 6.76562 7.91 7.42562 7.63 8.21562C7.62 8.24562 7.49 8.63562 7.49 8.81562C7.49 9.49562 8.04 10.0456 8.72 10.0456C9.01 10.0456 9.23 9.96562 9.42 9.81562C9.63 9.66562 9.8 9.33562 10.01 8.94562C10.22 8.55562 11.03 7.45562 12.1 7.45562C13.3 7.45562 14.02 8.00562 14.02 8.93562C14.02 9.58562 13.78 9.89561 12.76 10.5756C11.74 11.2356 11.57 11.3956 11.23 11.8156C10.77 12.3956 10.58 13.0256 10.58 13.9656C10.58 13.9656 10.58 14.1956 10.66 14.4156C10.82 14.8456 11.23 15.1556 11.72 15.1556C12.21 15.1556 12.61 14.8456 12.78 14.4256C12.83 14.1556 12.86 14.0056 12.86 14.0056C12.86 13.0856 13.34 12.7556 14.22 12.1556L14.48 11.9756C15.59 11.2056 16.51 10.4256 16.51 8.80562C16.51 6.70562 14.83 5.34562 12.22 5.34562V5.33562ZM11.71 16.0156C10.98 16.0156 10.38 16.6056 10.38 17.3456C10.38 18.0856 10.97 18.6756 11.71 18.6756C12.45 18.6756 13.04 18.0856 13.04 17.3456C13.04 16.6056 12.45 16.0156 11.71 16.0156ZM19.08 3.58562C17.1 1.92562 14.59 1.00562 12 1.00562C5.93 1.00562 1 5.93562 1 12.0056C1 18.0756 5.93 23.0056 12 23.0056C18.07 23.0056 23 18.0756 23 12.0056C23 8.75562 21.57 5.68562 19.08 3.58562ZM12 21.0056C7.04 21.0056 3 16.9656 3 12.0056C3 7.04562 7.04 3.00562 12 3.00562C14.12 3.00562 16.17 3.75562 17.79 5.11562C19.83 6.83562 21 9.34562 21 12.0056C21 16.9656 16.96 21.0056 12 21.0056Z" fill="currentColor"/>
</svg>
