<svg width="24" height="24" viewBox="0 0 24 24" fill="none" xmlns="http://www.w3.org/2000/svg">
<path d="M20.75 11.0056C20.2 11.0056 19.75 11.4556 19.75 12.0056C19.75 16.2756 16.27 19.7556 12 19.7556C7.73 19.7556 4.25 16.2756 4.25 12.0056C4.25 7.73564 7.73 4.25564 12 4.25564C14.06 4.25564 16.03 5.09564 17.47 6.52564H15.63C15.08 6.52564 14.63 6.97564 14.63 7.52564C14.63 8.07564 15.08 8.52564 15.63 8.52564H19.52C19.79 8.52564 20.05 8.41564 20.23 8.22564C20.42 8.03564 20.52 7.77564 20.52 7.50564L20.45 3.61564C20.45 3.06564 19.99 2.64564 19.43 2.63564C18.88 2.63564 18.44 3.10564 18.45 3.65564L18.47 4.74564C16.71 3.18564 14.41 2.26564 12 2.26564C6.62 2.25564 2.25 6.62564 2.25 12.0056C2.25 17.3856 6.62 21.7556 12 21.7556C17.38 21.7556 21.75 17.3856 21.75 12.0056C21.75 11.4556 21.3 11.0056 20.75 11.0056Z" fill="currentColor"/>
</svg>
