<svg width="24" height="24" viewBox="0 0 24 24" fill="none" xmlns="http://www.w3.org/2000/svg">
<path d="M21.71 20.2956L16.75 15.3356C19.28 12.0956 19.07 7.39556 16.09 4.41556C12.86 1.20556 7.63 1.20556 4.41 4.41556C1.19 7.62556 1.19 12.8656 4.41 16.0856C6.02 17.6956 8.13 18.4956 10.24 18.4956C12.04 18.4956 13.83 17.9056 15.32 16.7456L20.28 21.7056C20.48 21.9056 20.73 21.9956 20.99 21.9956C21.25 21.9956 21.5 21.8956 21.7 21.7056C22.09 21.3156 22.09 20.6856 21.7 20.2956H21.71ZM5.82999 14.6756C4.64999 13.4956 3.99999 11.9256 3.99999 10.2556C3.99999 8.58556 4.64999 7.01556 5.82999 5.83556C7.00999 4.65556 8.65 4.00556 10.25 4.00556C11.85 4.00556 13.45 4.61556 14.67 5.83556C15.89 7.05556 16.5 8.58556 16.5 10.2556C16.5 11.9256 15.85 13.4956 14.67 14.6756C12.23 17.1156 8.26999 17.1156 5.82999 14.6756Z" fill="currentColor"/>
</svg>
