<svg width="24" height="24" viewBox="0 0 24 24" fill="none" xmlns="http://www.w3.org/2000/svg">
<path d="M22.46 11.1101L3.33 1.18006C2.73 0.870057 2.03 0.970057 1.53 1.43006C1 1.92006 0.85 2.70006 1.19 3.45006L5.89 12.0001L1.15 20.6301C0.86 21.3001 1.01 22.0801 1.54 22.5701C1.84 22.8501 2.23 23.0001 2.61 23.0001C2.86 23.0001 3.1 22.9401 3.33 22.8201L22.46 12.8901C22.79 12.7201 23 12.3801 23 12.0001C23 11.6201 22.79 11.2801 22.46 11.1101ZM3.51 3.52006L17.91 11.0001H7.62L3.51 3.52006ZM7.62 13.0001H17.9L3.51 20.4701L7.62 13.0001Z" fill="currentColor"/>
</svg>
