<svg width="24" height="24" viewBox="0 0 24 24" fill="none" xmlns="http://www.w3.org/2000/svg">
<g clip-path="url(#clip0_2513_519)">
<path d="M21.8605 8.76562H20.1905C20.1505 8.67562 20.1205 8.58562 20.0805 8.49562L21.2605 7.31562C21.6605 6.91562 21.8805 6.37562 21.8805 5.80562C21.8805 5.23562 21.6605 4.69562 21.2605 4.29562L19.7005 2.73562C18.8705 1.90562 17.5105 1.90562 16.6805 2.73562L15.5005 3.91562C15.4105 3.87562 15.3205 3.84562 15.2305 3.80562V2.13562C15.2305 0.955615 14.2705 0.00561523 13.0905 0.00561523H10.8905C9.71047 0.00561523 8.75047 0.965615 8.75047 2.13562V3.80562C8.66047 3.84562 8.57047 3.87562 8.48047 3.91562L7.30047 2.73562C6.90047 2.33562 6.36047 2.11562 5.79047 2.11562C5.22047 2.11562 4.68047 2.33562 4.28047 2.73562L2.72047 4.29562C1.89047 5.12562 1.89047 6.48562 2.72047 7.31562L3.90047 8.49562C3.86047 8.58562 3.82047 8.67562 3.79047 8.76562H2.12047C0.940469 8.76562 -0.0195312 9.72562 -0.0195312 10.8956V13.0956C-0.0195312 14.2756 0.940469 15.2256 2.12047 15.2256H3.79047C3.83047 15.3156 3.86047 15.4056 3.90047 15.4956L2.72047 16.6756C2.32047 17.0756 2.09047 17.6156 2.09047 18.1856C2.09047 18.7556 2.31047 19.2956 2.71047 19.6956L4.27047 21.2556C4.67047 21.6556 5.21047 21.8856 5.78047 21.8856C6.35047 21.8856 6.89047 21.6656 7.29047 21.2656L8.47047 20.0856C8.56047 20.1256 8.65047 20.1556 8.74047 20.1956V21.8656C8.74047 23.0456 9.70047 23.9956 10.8805 23.9956H13.0805C14.2605 23.9956 15.2205 23.0356 15.2205 21.8656V20.1956C15.3105 20.1556 15.4005 20.1256 15.4905 20.0856L16.6705 21.2656C17.0705 21.6656 17.6105 21.8856 18.1805 21.8856C18.7505 21.8856 19.2905 21.6656 19.6905 21.2656L21.2505 19.7056C21.6505 19.3056 21.8705 18.7656 21.8705 18.1956C21.8705 17.6256 21.6505 17.0856 21.2505 16.6856L20.0705 15.5056C20.1105 15.4156 20.1505 15.3256 20.1805 15.2356H21.8505C23.0305 15.2356 23.9905 14.2756 23.9905 13.1056V10.9056C23.9905 9.72561 23.0305 8.77562 21.8505 8.77562L21.8605 8.76562ZM22.0005 13.1056C22.0005 13.1756 21.9405 13.2356 21.8605 13.2356H18.7305L18.5205 13.9556C18.3905 14.4056 18.2105 14.8356 17.9905 15.2356L17.6405 15.8956L19.8505 18.1056C19.8505 18.1056 19.8905 18.1756 19.8905 18.1956C19.8905 18.2156 19.8905 18.2556 19.8505 18.2956L18.2905 19.8556C18.2905 19.8556 18.2205 19.8956 18.2005 19.8956C18.1805 19.8956 18.1405 19.8956 18.1105 19.8556L15.9005 17.6456L15.2405 18.0056C14.8405 18.2256 14.4105 18.3956 13.9605 18.5356L13.2505 18.7456V21.8756C13.2505 21.9456 13.1905 22.0056 13.1105 22.0056H10.9105C10.8405 22.0056 10.7705 21.9456 10.7705 21.8756V18.7556L10.0605 18.5456C9.60047 18.4056 9.17047 18.2256 8.78047 18.0156L8.12047 17.6556L5.91047 19.8656C5.91047 19.8656 5.76047 19.9156 5.72047 19.8656L4.16047 18.3056C4.16047 18.3056 4.12047 18.2356 4.12047 18.2056C4.12047 18.1756 4.12047 18.1456 4.16047 18.1056L6.37047 15.8956L6.02047 15.2356C5.80047 14.8356 5.62047 14.4056 5.49047 13.9556L5.28047 13.2456H2.15047C2.08047 13.2456 2.01047 13.1856 2.01047 13.1156V10.9156C2.01047 10.8456 2.07047 10.7856 2.15047 10.7856H5.28047L5.49047 10.0756C5.63047 9.62562 5.80047 9.18562 6.02047 8.79562L6.38047 8.13562L4.17047 5.92562C4.12047 5.87562 4.12047 5.78562 4.17047 5.73562L5.73047 4.17562C5.73047 4.17562 5.88047 4.13562 5.92047 4.17562L8.13047 6.38562L8.79047 6.02562C9.18047 5.81562 9.61047 5.63561 10.0705 5.49562L10.7805 5.28562V2.16562C10.7805 2.09562 10.8405 2.03562 10.9205 2.03562H13.1205C13.1905 2.03562 13.2605 2.09562 13.2605 2.16562V5.29562L13.9705 5.50562C14.4305 5.64562 14.8605 5.81562 15.2505 6.03562L15.9105 6.39562L18.1205 4.18562C18.1705 4.13561 18.2605 4.13561 18.3105 4.18562L19.8705 5.74562C19.8705 5.74562 19.9105 5.89562 19.8705 5.93562L17.6605 8.14562L18.0205 8.80562C18.2305 9.19562 18.4105 9.62562 18.5505 10.0856L18.7605 10.8056H21.8905C21.9605 10.8056 22.0305 10.8656 22.0305 10.9356V13.1356L22.0005 13.1056ZM12.0005 7.70562C9.63047 7.70562 7.70047 9.63562 7.70047 12.0056C7.70047 14.3756 9.63047 16.3056 12.0005 16.3056C14.3705 16.3056 16.3005 14.3756 16.3005 12.0056C16.3005 9.63562 14.3705 7.70562 12.0005 7.70562ZM12.0005 14.3056C10.7305 14.3056 9.70047 13.2756 9.70047 12.0056C9.70047 10.7356 10.7305 9.70562 12.0005 9.70562C13.2705 9.70562 14.3005 10.7356 14.3005 12.0056C14.3005 13.2756 13.2705 14.3056 12.0005 14.3056Z" fill="currentColor"/>
</g>
<defs>
<clipPath id="clip0_2513_519">
<rect width="24" height="24" fill="white" transform="translate(0 0.00561523)"/>
</clipPath>
</defs>
</svg>
