<svg width="24" height="24" viewBox="0 0 24 24" fill="none" xmlns="http://www.w3.org/2000/svg">
<path d="M8.24 7.72563L11 4.96563V14.6456C11 15.1956 11.45 15.6456 12 15.6456C12.55 15.6456 13 15.1956 13 14.6456V4.94563L15.75 7.79563C15.95 7.99563 16.21 8.10563 16.47 8.10563C16.73 8.10563 16.97 8.01563 17.16 7.82563C17.56 7.44563 17.57 6.80563 17.18 6.41563L12.76 1.81563C12.57 1.61563 12.32 1.50563 12.05 1.50563C11.77 1.49563 11.52 1.60563 11.33 1.79563L6.82 6.30563C6.43 6.69563 6.43 7.32563 6.82 7.71563C7.21 8.10563 7.84 8.10563 8.23 7.71563L8.24 7.72563ZM21.5 11.0056C20.95 11.0056 20.5 11.4556 20.5 12.0056V19.1256C20.5 19.8856 19.88 20.5056 19.12 20.5056H4.88C4.12 20.5056 3.5 19.8856 3.5 19.1256V12.0056C3.5 11.4556 3.05 11.0056 2.5 11.0056C1.95 11.0056 1.5 11.4556 1.5 12.0056V19.1256C1.5 20.9856 3.01 22.5056 4.88 22.5056H19.13C20.99 22.5056 22.51 20.9956 22.51 19.1256V12.0056C22.51 11.4556 22.06 11.0056 21.51 11.0056H21.5Z" fill="currentColor"/>
</svg>
