<svg width="24" height="24" viewBox="0 0 24 24" fill="none" xmlns="http://www.w3.org/2000/svg">
<g clip-path="url(#clip0_2225_1197)">
<path d="M9.73 15.8256H1C0.45 15.8256 0 16.2756 0 16.8256C0 17.3756 0.45 17.8256 1 17.8256H9.73C10.28 17.8256 10.73 17.3756 10.73 16.8256C10.73 16.2756 10.28 15.8256 9.73 15.8256ZM9.73 10.9156H1C0.45 10.9156 0 11.3656 0 11.9156C0 12.4656 0.45 12.9156 1 12.9156H9.73C10.28 12.9156 10.73 12.4656 10.73 11.9156C10.73 11.3656 10.28 10.9156 9.73 10.9156ZM23.71 14.3156C23.32 13.9256 22.69 13.9256 22.3 14.3156L19.64 16.9756V5.50562C19.64 4.95562 19.19 4.50562 18.64 4.50562C18.09 4.50562 17.64 4.95562 17.64 5.50562V16.9856L15 14.2456C14.62 13.8456 13.98 13.8356 13.59 14.2256C13.19 14.6056 13.18 15.2456 13.57 15.6356L17.9 20.1156C18.09 20.3056 18.34 20.4156 18.61 20.4256C18.88 20.4256 19.13 20.3156 19.32 20.1356L23.72 15.7356C24.11 15.3456 24.11 14.7156 23.72 14.3256L23.71 14.3156ZM9.73 6.00562H1C0.45 6.00562 0 6.45562 0 7.00562C0 7.55562 0.45 8.00562 1 8.00562H9.73C10.28 8.00562 10.73 7.55562 10.73 7.00562C10.73 6.45562 10.28 6.00562 9.73 6.00562Z" fill="currentColor"/>
</g>
<defs>
<clipPath id="clip0_2225_1197">
<rect width="24" height="24" fill="white" transform="translate(0 0.00561523)"/>
</clipPath>
</defs>
</svg>
