<svg width="24" height="24" viewBox="0 0 24 24" fill="none" xmlns="http://www.w3.org/2000/svg">
<g clip-path="url(#clip0_3724_812)">
<path d="M22.5522 16.5743L15.4147 10.2764C16.3044 7.47741 15.5846 4.41847 13.4753 2.3092C11.0862 -0.0799801 7.43743 -0.679773 4.39847 0.81971C4.10857 0.959661 3.90864 1.23956 3.85866 1.54946C3.80868 1.86935 3.90864 2.18924 4.13856 2.41916L8.00723 6.28782L7.75732 7.75732L6.28782 8.00723L2.41916 4.13856C2.18924 3.90864 1.86935 3.80868 1.54946 3.85866C1.22957 3.90864 0.959661 4.11857 0.81971 4.39847C-0.679773 7.43743 -0.0799801 11.0862 2.3092 13.4753C4.41847 15.5846 7.47741 16.3044 10.2764 15.4147L16.5943 22.5722C17.364 23.4419 18.4736 23.9617 19.6332 24.0017C19.6732 24.0017 19.7232 24.0017 19.7632 24.0017C20.8828 24.0017 21.9624 23.5519 22.7521 22.7621C23.5419 21.9724 24.0317 20.7928 23.9917 19.6232C23.9517 18.4536 23.4319 17.344 22.5522 16.5743ZM21.3326 21.3526C20.8928 21.7925 20.303 22.0024 19.6932 22.0024C19.0734 21.9824 18.5036 21.7125 18.0937 21.2527L11.3261 13.5753C11.1361 13.3554 10.8562 13.2354 10.5763 13.2354C10.4464 13.2354 10.3164 13.2654 10.1865 13.3154C7.96724 14.2551 5.42812 13.7552 3.72871 12.0558C2.2992 10.6263 1.7294 8.58703 2.12926 6.66769L5.23818 9.77662C5.4681 10.0065 5.79799 10.1065 6.11788 10.0565L8.78696 9.59668C9.20681 9.5267 9.5267 9.19682 9.59668 8.78696L10.0565 6.11788C10.1165 5.79799 10.0065 5.4681 9.77662 5.23818L6.66769 2.12926C8.58703 1.7194 10.6163 2.2992 12.0558 3.72871C13.7552 5.42812 14.2551 7.96724 13.3154 10.1865C13.1455 10.5863 13.2554 11.0362 13.5753 11.3261L21.2327 18.0838C21.7025 18.5036 21.9724 19.0734 21.9924 19.7032C22.0124 20.333 21.7825 20.9228 21.3326 21.3626V21.3526ZM18.9934 18.9934C18.6036 19.3833 18.6036 20.0131 18.9934 20.403C19.3833 20.7928 20.0131 20.7928 20.403 20.403C20.7928 20.0131 20.7928 19.3833 20.403 18.9934C20.0131 18.6036 19.3833 18.6036 18.9934 18.9934Z" fill="currentColor"/>
</g>
<defs>
<clipPath id="clip0_3724_812">
<rect width="24" height="24" fill="white" transform="translate(0 0.00561523)"/>
</clipPath>
</defs>
</svg>
