<svg width="24" height="24" viewBox="0 0 24 24" fill="none" xmlns="http://www.w3.org/2000/svg">
<path d="M6.56001 22.5657C6.11001 22.5657 5.65001 22.4257 5.27001 22.1457C4.59001 21.6457 4.25001 20.8257 4.39001 19.9957L5.23001 15.0857L1.66001 11.6157C1.06001 11.0257 0.84001 10.1657 1.10001 9.35567C1.36001 8.55567 2.04001 7.97567 2.88001 7.85567L7.81001 7.13567L10.02 2.66567C10.39 1.90567 11.15 1.43567 11.99 1.43567C12.83 1.43567 13.59 1.90567 13.96 2.66567L16.17 7.13567L21.1 7.85567C21.93 7.97567 22.62 8.54567 22.88 9.35567C23.14 10.1557 22.93 11.0257 22.32 11.6157L18.75 15.0857L19.59 19.9957C19.73 20.8257 19.4 21.6557 18.71 22.1457C18.03 22.6457 17.14 22.7057 16.39 22.3157L11.97 19.9957L7.55001 22.3157C7.23001 22.4857 6.87001 22.5657 6.53001 22.5657H6.56001ZM12 3.44567C11.92 3.44567 11.86 3.48567 11.82 3.55567L9.38001 8.49567C9.23001 8.78567 8.95001 8.99567 8.63001 9.04567L3.18001 9.83567C3.10001 9.84567 3.04001 9.89567 3.02001 9.97567C2.99001 10.0557 3.02001 10.1257 3.07001 10.1857L7.02001 14.0257C7.26001 14.2557 7.36001 14.5857 7.31001 14.9157L6.38001 20.3457C6.37001 20.4257 6.39001 20.4957 6.46001 20.5457C6.53001 20.5957 6.60001 20.5957 6.67001 20.5657L11.55 18.0057C11.84 17.8557 12.19 17.8557 12.48 18.0057L17.36 20.5657C17.43 20.6057 17.5 20.5957 17.57 20.5457C17.64 20.4957 17.66 20.4357 17.65 20.3457L16.72 14.9157C16.66 14.5957 16.77 14.2557 17.01 14.0257L20.96 10.1857C21.02 10.1257 21.04 10.0557 21.01 9.97567C20.98 9.89567 20.93 9.85567 20.85 9.83567L15.4 9.04567C15.07 8.99567 14.79 8.79567 14.65 8.49567L12.21 3.55567C12.17 3.48567 12.11 3.44567 12.03 3.44567H12Z" fill="currentColor"/>
</svg>
