<svg width="24" height="24" viewBox="0 0 24 24" fill="none" xmlns="http://www.w3.org/2000/svg">
<path d="M10.81 7.50562H8.73C8.62 7.50562 8.53 7.59561 8.53 7.70562V16.3056C8.53 16.4156 8.62 16.5056 8.73 16.5056H10.81C10.92 16.5056 11.01 16.4156 11.01 16.3056V7.70562C11.01 7.59561 10.92 7.50562 10.81 7.50562ZM19.08 3.58562C17.1 1.92562 14.59 1.00562 12 1.00562C5.93 1.00562 1 5.93562 1 12.0056C1 18.0756 5.93 23.0056 12 23.0056C18.07 23.0056 23 18.0756 23 12.0056C23 8.75562 21.57 5.68562 19.08 3.58562ZM12 21.0056C7.04 21.0056 3 16.9656 3 12.0056C3 7.04562 7.04 3.00562 12 3.00562C14.12 3.00562 16.17 3.75562 17.79 5.11562C19.83 6.83562 21 9.34562 21 12.0056C21 16.9656 16.96 21.0056 12 21.0056ZM15.27 7.50562H13.19C13.08 7.50562 12.99 7.59561 12.99 7.70562V16.3056C12.99 16.4156 13.08 16.5056 13.19 16.5056H15.27C15.38 16.5056 15.47 16.4156 15.47 16.3056V7.70562C15.47 7.59561 15.38 7.50562 15.27 7.50562Z" fill="currentColor"/>
</svg>
