<svg width="24" height="24" viewBox="0 0 24 24" fill="none" xmlns="http://www.w3.org/2000/svg">
<g clip-path="url(#clip0_4481_1760)">
<path d="M12 0.00561523C7.45 0.00561523 3.75 3.70562 3.75 8.25562C3.75 10.9456 5.04 13.4256 7.22 14.9756L7.55 16.8856V19.4956C7.55 20.7756 8.52 21.8156 9.76 21.9656C9.8 23.0956 10.79 24.0056 12 24.0056C13.21 24.0056 14.2 23.0956 14.24 21.9656C15.48 21.8156 16.45 20.7756 16.45 19.4956V16.8856L16.78 14.9756C18.96 13.4256 20.25 10.9456 20.25 8.25562C20.25 3.70562 16.55 0.00561523 12 0.00561523ZM12 22.5056C11.63 22.5056 11.34 22.2856 11.28 21.9956H12.73C12.67 22.2856 12.37 22.5056 12.01 22.5056H12ZM14.45 19.4956C14.45 19.7756 14.23 19.9956 13.95 19.9956H10.05C9.77 19.9956 9.55 19.7756 9.55 19.4956V17.7956H14.45V19.4956ZM15.33 13.5356C15.09 13.6856 14.93 13.9356 14.88 14.2156L14.61 15.7956H9.4L9.13 14.2156C9.08 13.9356 8.92 13.6856 8.68 13.5356C6.85 12.3756 5.76 10.4056 5.76 8.25562C5.76 4.80562 8.56 2.00562 12.01 2.00562C15.46 2.00562 18.26 4.80562 18.26 8.25562C18.26 10.4056 17.17 12.3856 15.34 13.5356H15.33Z" fill="currentColor"/>
</g>
<defs>
<clipPath id="clip0_4481_1760">
<rect width="24" height="24" fill="white" transform="translate(0 0.00561523)"/>
</clipPath>
</defs>
</svg>
