<svg width="24" height="24" viewBox="0 0 24 24" fill="none" xmlns="http://www.w3.org/2000/svg">
<g clip-path="url(#clip0_2150_798)">
<path d="M21.58 3.91561H17.1V2.03561C17.1 0.915605 16.19 -0.00439453 15.06 -0.00439453H8.54C7.42 -0.00439453 6.5 0.905605 6.5 2.03561V3.91561H2.02C1.46 3.91561 1 4.37561 1 4.93561C1 5.49561 1.46 5.95561 2.02 5.95561H3.45V20.9956C3.45 22.6856 4.82 24.0556 6.51 24.0556H17.11C18.8 24.0556 20.17 22.6856 20.17 20.9956V5.95561H21.6C22.16 5.95561 22.62 5.49561 22.62 4.93561C22.62 4.37561 22.16 3.91561 21.6 3.91561H21.58ZM8.54 2.04561H15.06V3.92561H8.54V2.04561ZM18.12 20.9956C18.12 21.5556 17.66 22.0156 17.1 22.0156H6.5C5.94 22.0156 5.48 21.5556 5.48 20.9956V5.95561H18.11V20.9956H18.12ZM8.41 10.6556C7.99 10.6556 7.65 10.9956 7.65 11.4156V18.7556C7.65 19.1756 7.99 19.5156 8.41 19.5156C8.83 19.5156 9.17 19.1756 9.17 18.7556V11.4156C9.17 10.9956 8.83 10.6556 8.41 10.6556ZM11.8 10.6556C11.38 10.6556 11.04 10.9956 11.04 11.4156V18.7556C11.04 19.1756 11.38 19.5156 11.8 19.5156C12.22 19.5156 12.56 19.1756 12.56 18.7556V11.4156C12.56 10.9956 12.22 10.6556 11.8 10.6556ZM15.19 10.6556C14.77 10.6556 14.43 10.9956 14.43 11.4156V18.7556C14.43 19.1756 14.77 19.5156 15.19 19.5156C15.61 19.5156 15.95 19.1756 15.95 18.7556V11.4156C15.95 10.9956 15.61 10.6556 15.19 10.6556Z" fill="currentColor"/>
</g>
<defs>
<clipPath id="clip0_2150_798">
<rect width="24" height="24" fill="white" transform="translate(0 0.00561523)"/>
</clipPath>
</defs>
</svg>
