<svg width="24" height="24" viewBox="0 0 24 24" fill="none" xmlns="http://www.w3.org/2000/svg">
<path d="M21.71 20.2956L16.75 15.3356C19.28 12.0956 19.07 7.39556 16.09 4.41556C12.87 1.20556 7.63 1.20556 4.41 4.41556C1.2 7.63556 1.2 12.8756 4.41 16.0856C6.02 17.6956 8.13 18.4956 10.24 18.4956C12.04 18.4956 13.83 17.9056 15.32 16.7456L20.28 21.7056C20.54 21.9656 20.73 21.9956 20.99 21.9956C21.25 21.9956 21.5 21.8956 21.7 21.7056C22.09 21.3156 22.14 20.7356 21.7 20.2956H21.71ZM14.67 14.6756C12.23 17.1156 8.27 17.1156 5.83 14.6756C3.39 12.2356 3.39 8.27556 5.83 5.83556C7.05 4.61556 8.65 4.00556 10.25 4.00556C11.85 4.00556 13.45 4.61556 14.67 5.83556C17.11 8.27556 17.11 12.2356 14.67 14.6756ZM11.25 9.25556V6.50556C11.25 5.95556 10.8 5.50556 10.25 5.50556C9.7 5.50556 9.25 5.95556 9.25 6.50556V9.25556H6.5C5.95 9.25556 5.5 9.70556 5.5 10.2556C5.5 10.8056 5.95 11.2556 6.5 11.2556H9.25V14.0056C9.25 14.5556 9.7 15.0056 10.25 15.0056C10.8 15.0056 11.25 14.5556 11.25 14.0056V11.2556H14C14.55 11.2556 15 10.8056 15 10.2556C15 9.70556 14.55 9.25556 14 9.25556H11.25Z" fill="currentColor"/>
</svg>
