<svg width="24" height="24" viewBox="0 0 24 24" fill="none" xmlns="http://www.w3.org/2000/svg">
<g clip-path="url(#clip0_8507_14934)">
<path d="M16 16.69V13.51C15.14 12.7 14.14 12.05 13.03 11.61C14.72 10.47 15.84 8.54 15.84 6.34C15.84 2.84 12.99 0 9.5 0C6.01 0 3.16 2.83 3.16 6.33C3.16 8.52 4.28 10.46 5.97 11.6C2.48 13 0 16.42 0 20.41C0 20.96 0.45 21.41 1 21.41C1.55 21.41 2 20.96 2 20.41C2 16.27 5.36 12.91 9.5 12.91C12.28 12.91 14.7 14.43 16 16.68V16.69ZM9.5 10.67C7.11 10.67 5.16 8.72 5.16 6.33C5.16 3.94 7.11 1.99 9.5 1.99C11.89 1.99 13.84 3.94 13.84 6.33C13.84 8.72 11.89 10.67 9.5 10.67ZM23 17.99H20V14.99C20 14.44 19.55 13.99 19 13.99C18.45 13.99 18 14.44 18 14.99V17.99H15C14.45 17.99 14 18.44 14 18.99C14 19.54 14.45 19.99 15 19.99H18V22.99C18 23.54 18.45 23.99 19 23.99C19.55 23.99 20 23.54 20 22.99V19.99H23C23.55 19.99 24 19.54 24 18.99C24 18.44 23.55 17.99 23 17.99Z" fill="#231815"/>
</g>
<defs>
<clipPath id="clip0_8507_14934">
<rect width="24" height="24" fill="white"/>
</clipPath>
</defs>
</svg>
