<svg width="24" height="24" viewBox="0 0 24 24" fill="none" xmlns="http://www.w3.org/2000/svg">
<path d="M5.71055 11.7101L12.0005 5.42006L18.2905 11.7101C18.4905 11.9101 18.7405 12.0001 19.0005 12.0001C19.2605 12.0001 19.5105 11.9001 19.7105 11.7101C20.1005 11.3201 20.1005 10.6901 19.7105 10.3001L12.7105 3.29006C12.3205 2.90006 11.6905 2.90006 11.3005 3.29006L4.29055 10.2901C3.90055 10.6801 3.90055 11.3101 4.29055 11.7001C4.68055 12.0901 5.31055 12.0901 5.70055 11.7001L5.71055 11.7101ZM19.0005 17.0001H5.00055C4.45055 17.0001 4.00055 17.4501 4.00055 18.0001C4.00055 18.5501 4.45055 19.0001 5.00055 19.0001H19.0005C19.5505 19.0001 20.0005 18.5501 20.0005 18.0001C20.0005 17.4501 19.5505 17.0001 19.0005 17.0001Z" fill="black"/>
</svg>
