<svg width="24" height="24" viewBox="0 0 24 24" fill="none" xmlns="http://www.w3.org/2000/svg">
<path d="M5.99996 18.9985L5.99996 4.99848C5.99996 4.44848 5.54975 3.99848 4.99949 3.99848C4.44923 3.99848 3.99902 4.44848 3.99902 4.99848L3.99902 18.9985C3.99902 19.5485 4.44923 19.9985 4.99949 19.9985C5.54975 19.9985 5.99996 19.5485 5.99996 18.9985ZM11.2924 11.2885C10.9023 11.6785 10.9023 12.3085 11.2924 12.6985L18.2957 19.7085C18.6859 20.0985 19.3162 20.0985 19.7064 19.7085C20.0966 19.3185 20.0966 18.6885 19.7064 18.2985L13.4134 12.0085L19.7064 5.71848C19.9065 5.51848 19.9965 5.26848 19.9965 5.00848C19.9965 4.74848 19.8965 4.49848 19.7064 4.29848C19.3162 3.90848 18.6859 3.90848 18.2957 4.29848L11.2924 11.2985L11.2924 11.2885Z" fill="black"/>
</svg>
