<svg width="24" height="24" viewBox="0 0 24 24" fill="none" xmlns="http://www.w3.org/2000/svg">
<path d="M12.2875 5.70859L18.5775 11.9986L12.2875 18.2886C12.0875 18.4886 11.9975 18.7386 11.9975 18.9986C11.9975 19.2586 12.0975 19.5086 12.2875 19.7086C12.6775 20.0986 13.3075 20.0986 13.6975 19.7086L20.7075 12.7086C21.0975 12.3186 21.0975 11.6886 20.7075 11.2986L13.7075 4.28859C13.3175 3.89859 12.6875 3.89859 12.2975 4.28859C11.9075 4.67859 11.9075 5.30859 12.2975 5.69859L12.2875 5.70859ZM6.9975 18.9986L6.9975 4.99859C6.9975 4.44859 6.5475 3.99859 5.9975 3.99859C5.4475 3.99859 4.9975 4.44859 4.9975 4.99859L4.9975 18.9986C4.9975 19.5486 5.4475 19.9986 5.9975 19.9986C6.5475 19.9986 6.9975 19.5486 6.9975 18.9986Z" fill="black"/>
</svg>
