<svg width="24" height="24" viewBox="0 0 24 24" fill="none" xmlns="http://www.w3.org/2000/svg">
<path d="M18.1819 11.84C17.6322 11.84 17.1824 12.29 17.1824 12.84V18.32C17.1824 19.25 16.4328 20 15.5032 20H5.67816C4.74863 20 3.999 19.25 3.999 18.32V8.49C3.999 7.56 4.74863 6.81 5.67816 6.81H10.1159C10.6657 6.81 11.1154 6.36 11.1154 5.81C11.1154 5.26 10.6657 4.81 10.1159 4.81H5.67816C3.64918 4.81 2 6.46 2 8.49V18.32C2 20.35 3.64918 22 5.67816 22H15.5032C17.5322 22 19.1814 20.35 19.1814 18.32V12.84C19.1814 12.29 18.7316 11.84 18.1819 11.84ZM20.9905 2H14.3638C13.8141 2 13.3643 2.45 13.3643 3C13.3643 3.55 13.8141 4 14.3638 4H18.5817L10.8156 11.77C10.4258 12.16 10.4258 12.79 10.8156 13.18C11.0155 13.38 11.2654 13.47 11.5252 13.47C11.7851 13.47 12.035 13.37 12.2349 13.18L20.001 5.41V9.63C20.001 10.18 20.4508 10.63 21.0005 10.63C21.5502 10.63 22 10.18 22 9.63V3C22 2.45 21.5502 2 21.0005 2H20.9905Z" fill="black"/>
</svg>
