<svg width="24" height="24" viewBox="0 0 24 24" fill="none" xmlns="http://www.w3.org/2000/svg">
<path d="M13 17H11V19H13V17ZM13 10.5H11V12.5H13V10.5ZM17 13.75H15V19H17V13.75ZM17 10.5H15V12.5H17V10.5ZM13 13.75H11V15.75H13V13.75ZM18.5 1H5.5C3.85 1 2.5 2.35 2.5 4V20C2.5 21.65 3.85 23 5.5 23H18.5C20.15 23 21.5 21.65 21.5 20V4C21.5 2.35 20.15 1 18.5 1ZM19.5 20C19.5 20.55 19.05 21 18.5 21H5.5C4.95 21 4.5 20.55 4.5 20V8.95H19.5V20ZM19.5 6.95H4.5V4C4.5 3.45 4.95 3 5.5 3H18.5C19.05 3 19.5 3.45 19.5 4V6.95ZM9 17H7V19H9V17ZM9 10.5H7V12.5H9V10.5ZM9 13.75H7V15.75H9V13.75Z" fill="black"/>
</svg>
