<svg width="24" height="24" viewBox="0 0 24 24" fill="none" xmlns="http://www.w3.org/2000/svg">
<g clip-path="url(#clip0_11150_317491)">
<path d="M23.7901 7.27C23.4701 6.86 22.8901 6.76 22.4601 7.04C22.4001 7.07 22.1201 7.18 21.4401 7.32C21.4001 7.26 21.3701 7.19 21.3401 7.1C20.6901 5.32 19.7601 3.18 18.3201 2.36C17.0601 1.65 14.1901 1.5 12.0001 1.5C9.8101 1.5 6.9401 1.65 5.6801 2.36C4.2401 3.17 3.3101 5.32 2.6601 7.1C2.6301 7.19 2.6001 7.25 2.5601 7.32C1.8701 7.19 1.6001 7.07 1.5401 7.04C1.1101 6.77 0.530102 6.86 0.210102 7.27C-0.129898 7.71 -0.0498977 8.33 0.390102 8.67C0.550102 8.79 0.890102 8.97 1.6101 9.15C1.5501 9.29 1.5001 9.45 1.4401 9.62C1.0801 10.62 0.880102 11.56 0.730102 12.39L0.660102 12.83C0.540102 13.58 0.490102 13.89 0.510102 14.92C0.530102 16.01 0.580102 18.36 1.9001 19.31V20.63C1.9001 21.66 2.7501 22.5 3.8001 22.5H6.0101C7.0601 22.5 7.9101 21.66 7.9101 20.63V19.68H12.0101H16.1101V20.63C16.1101 21.66 16.9601 22.5 18.0101 22.5H20.2201C21.2701 22.5 22.1201 21.66 22.1201 20.63V19.31C23.4401 18.37 23.4901 16.02 23.5101 14.93C23.5301 13.9 23.4801 13.59 23.3601 12.84L23.2901 12.36C23.1401 11.57 22.9501 10.63 22.5901 9.63C22.5301 9.46 22.4701 9.31 22.4201 9.16C23.1401 8.98 23.4801 8.8 23.6401 8.68C24.0801 8.34 24.1601 7.71 23.8201 7.28L23.7901 7.27ZM6.6601 4.1C7.1501 3.82 8.8401 3.5 12.0001 3.5C15.1601 3.5 16.8401 3.82 17.3301 4.1C17.9601 4.46 18.6501 5.64 19.3901 7.6C17.8101 7.76 15.4701 7.89 12.0001 7.89C8.5301 7.89 6.1901 7.76 4.6101 7.6C5.3401 5.64 6.0301 4.46 6.6701 4.1H6.6601ZM5.9001 20.5H3.8901V19.67H5.9001V20.5ZM20.1101 20.5H18.1001V19.67H20.1101V20.5ZM21.4901 14.88C21.4501 17.1 21.0701 17.58 20.9401 17.67H17.1001H12.0101H3.0501C2.9201 17.57 2.5401 17.1 2.5001 14.88C2.4801 14.03 2.5101 13.84 2.6201 13.14L2.6801 12.72C2.8201 11.97 2.9901 11.16 3.3001 10.29C3.4201 9.96 3.5201 9.71 3.6101 9.5C5.3501 9.72 7.9901 9.88 11.9901 9.88C15.9901 9.88 18.6301 9.72 20.3701 9.5C20.4601 9.71 20.5601 9.96 20.6801 10.29C20.9901 11.16 21.1601 11.97 21.3001 12.68L21.3701 13.13C21.4801 13.83 21.5101 14.02 21.4901 14.87V14.88ZM18.3401 11.04C17.5701 11.04 16.9401 11.67 16.9401 12.44C16.9401 13.21 17.5701 13.84 18.3401 13.84C19.1101 13.84 19.7401 13.21 19.7401 12.44C19.7401 11.67 19.1101 11.04 18.3401 11.04ZM5.6601 11.04C4.8901 11.04 4.2601 11.67 4.2601 12.44C4.2601 13.21 4.8901 13.84 5.6601 13.84C6.4301 13.84 7.0601 13.21 7.0601 12.44C7.0601 11.67 6.4301 11.04 5.6601 11.04ZM14.6901 14.28C13.0001 14.65 11.2001 14.65 9.5201 14.28C9.1101 14.19 8.7101 14.45 8.6301 14.85C8.5401 15.25 8.8001 15.65 9.2001 15.74C10.1501 15.95 11.1301 16.06 12.1101 16.06C13.0901 16.06 14.0701 15.95 15.0201 15.74C15.4201 15.65 15.6801 15.25 15.5901 14.85C15.5001 14.45 15.1001 14.19 14.7001 14.28H14.6901Z" fill="black"/>
</g>
<defs>
<clipPath id="clip0_11150_317491">
<rect width="24" height="24" fill="white"/>
</clipPath>
</defs>
</svg>
