<svg width="24" height="24" viewBox="0 0 24 24" fill="none" xmlns="http://www.w3.org/2000/svg">
<path d="M11.99 15.7796C11.23 15.7796 10.61 16.3996 10.61 17.1596C10.61 17.9196 11.23 18.5396 11.99 18.5396C12.75 18.5396 13.37 17.9196 13.37 17.1596C13.37 16.3996 12.75 15.7796 11.99 15.7796ZM11.99 15.0396C12.6 15.0396 13.1 14.5396 13.1 13.9296V8.13958C13.1 7.52958 12.6 7.02958 11.99 7.02958C11.38 7.02958 10.88 7.52958 10.88 8.13958V13.9296C10.88 14.5396 11.38 15.0396 11.99 15.0396ZM23.15 17.8996L14.59 3.06958C14.05 2.12958 13.08 1.56958 11.99 1.56958C10.9 1.56958 9.93 2.12958 9.39 3.06958L0.839998 17.8996C0.299998 18.8396 0.299998 19.9596 0.839998 20.8996C1.38 21.8396 2.35 22.3996 3.44 22.3996H20.56C21.64 22.3996 22.62 21.8396 23.16 20.8996C23.7 19.9596 23.7 18.8396 23.16 17.8996H23.15ZM21.42 19.8996C21.33 20.0496 21.07 20.3996 20.55 20.3996H3.43C2.91 20.3996 2.65 20.0496 2.56 19.8996C2.47 19.7496 2.3 19.3496 2.56 18.8996L11.13 4.06958C11.39 3.61958 11.82 3.56958 12 3.56958C12.18 3.56958 12.61 3.61958 12.87 4.06958L21.43 18.8996C21.69 19.3496 21.52 19.7496 21.43 19.8996H21.42Z" fill="black"/>
</svg>
