<svg width="24" height="24" viewBox="0 0 24 24" fill="none" xmlns="http://www.w3.org/2000/svg">
<path d="M18.43 4.34C16.63 2.83 14.35 2 12 2C6.49 2 2 6.49 2 12C2 17.51 6.49 22 12 22C17.51 22 22 17.51 22 12C22 9.04 20.7 6.25 18.43 4.34ZM12 20C7.59 20 4 16.41 4 12C4 7.59 7.59 4 12 4C13.88 4 15.71 4.67 17.15 5.87C18.96 7.4 20 9.63 20 12C20 16.41 16.41 20 12 20ZM17.71 7.96C17.32 7.57 16.69 7.57 16.3 7.96L10.34 13.92L7.71 11.29C7.32 10.9 6.69 10.9 6.3 11.29C5.91 11.68 5.91 12.31 6.3 12.7L9.63 16.03C9.82 16.22 10.07 16.32 10.34 16.32C10.61 16.32 10.86 16.21 11.05 16.03L17.72 9.36C18.11 8.97 18.11 8.34 17.72 7.95L17.71 7.96Z" fill="black"/>
</svg>
