<svg width="24" height="24" viewBox="0 0 24 24" fill="none" xmlns="http://www.w3.org/2000/svg">
<path d="M16.95 7.05562C16.56 6.66562 15.93 6.66562 15.54 7.05562L12 10.5956L8.46 7.05562C8.07 6.66562 7.44 6.66562 7.05 7.05562C6.66 7.44562 6.66 8.07562 7.05 8.46562L10.59 12.0056L7.05 15.5456C6.66 15.9356 6.66 16.5656 7.05 16.9556C7.25 17.1556 7.5 17.2456 7.76 17.2456C8.02 17.2456 8.27 17.1456 8.47 16.9556L12.01 13.4156L15.55 16.9556C15.75 17.1556 16 17.2456 16.26 17.2456C16.52 17.2456 16.77 17.1456 16.97 16.9556C17.36 16.5656 17.36 15.9356 16.97 15.5456L13.43 12.0056L16.97 8.46562C17.36 8.07562 17.36 7.44562 16.97 7.05562H16.95ZM19.08 3.58562C17.1 1.92562 14.59 1.00562 12 1.00562C5.93 1.00562 1 5.93562 1 12.0056C1 18.0756 5.93 23.0056 12 23.0056C18.07 23.0056 23 18.0756 23 12.0056C23 8.75562 21.57 5.68562 19.08 3.58562ZM12 21.0056C7.04 21.0056 3 16.9656 3 12.0056C3 7.04562 7.04 3.00562 12 3.00562C14.12 3.00562 16.17 3.75562 17.79 5.11562C19.83 6.83562 21 9.34562 21 12.0056C21 16.9656 16.96 21.0056 12 21.0056Z" fill="black"/>
</svg>
