<svg width="24" height="24" viewBox="0 0 24 24" fill="none" xmlns="http://www.w3.org/2000/svg">
<g clip-path="url(#clip0_429_9516)">
<circle cx="12" cy="12" r="12" fill="#ECEDED"/>
<path fill-rule="evenodd" clip-rule="evenodd" d="M13.6467 12L18.0667 7.58C18.3267 7.32 18.4133 7.06 18.4133 6.71333C18.4133 6.36667 18.24 6.10667 18.0667 5.84667C17.8067 5.58667 17.5467 5.5 17.2 5.5C16.8533 5.5 16.5933 5.67333 16.3333 5.84667L11.9133 10.2667L7.58 5.84667C7.32 5.58667 7.06 5.5 6.71333 5.5C6.36667 5.5 6.10667 5.67333 5.84667 5.84667C5.58667 6.10667 5.5 6.36667 5.5 6.71333C5.5 7.06 5.67333 7.32 5.84667 7.58L10.2667 12L5.84667 16.42C5.58667 16.68 5.5 16.94 5.5 17.2867C5.5 17.6333 5.67333 17.8933 5.84667 18.1533C6.10667 18.4133 6.36667 18.5 6.71333 18.5C7.06 18.5 7.32 18.3267 7.58 18.1533L12 13.7333L16.42 18.1533C16.68 18.4133 16.94 18.5 17.2867 18.5C17.6333 18.5 17.8933 18.3267 18.1533 18.1533C18.4133 17.98 18.5 17.6333 18.5 17.2867C18.5 16.94 18.3267 16.68 18.1533 16.42L13.7333 12H13.6467Z" fill="black"/>
</g>
<defs>
<clipPath id="clip0_429_9516">
<rect width="24" height="24" fill="white"/>
</clipPath>
</defs>
</svg>
