<svg width="24" height="24" viewBox="0 0 24 24" fill="none" xmlns="http://www.w3.org/2000/svg">
<path d="M13.4101 12.0001L18.2101 7.21006C18.6001 6.82006 18.6001 6.19006 18.2101 5.80006C17.8201 5.41006 17.1901 5.41006 16.8001 5.80006L12.0101 10.5901L7.21006 5.79006C6.82006 5.40006 6.18006 5.40006 5.79006 5.79006C5.40006 6.18006 5.40006 6.82006 5.79006 7.21006L10.5801 12.0001L5.79006 16.7901C5.40006 17.1801 5.40006 17.8101 5.79006 18.2001C5.99006 18.4001 6.24006 18.4901 6.50006 18.4901C6.76006 18.4901 7.01006 18.3901 7.21006 18.2001L12.0001 13.4101L16.7901 18.2001C16.9901 18.4001 17.2401 18.4901 17.5001 18.4901C17.7601 18.4901 18.0101 18.3901 18.2101 18.2001C18.6001 17.8101 18.6001 17.1801 18.2101 16.7901L13.4201 12.0001H13.4101Z" fill="black"/>
</svg>
