<svg width="24" height="24" viewBox="0 0 24 24" fill="none" xmlns="http://www.w3.org/2000/svg">
<path d="M19.09 4.36H8.36C6.71 4.36 5.36 5.71 5.36 7.36V20.81C5.36 22.46 6.71 23.81 8.36 23.81H19.09C20.74 23.81 22.09 22.46 22.09 20.81V7.36C22.09 5.71 20.74 4.36 19.09 4.36ZM20.09 20.82C20.09 21.37 19.64 21.82 19.09 21.82H8.36C7.81 21.82 7.36 21.37 7.36 20.82V7.36C7.36 6.81 7.81 6.36 8.36 6.36H19.09C19.64 6.36 20.09 6.81 20.09 7.36V20.81V20.82ZM17.18 1C17.18 0.45 16.73 0 16.18 0H5.27C2.92 0 1 1.92 1 4.27V17.36C1 17.91 1.45 18.36 2 18.36C2.55 18.36 3 17.91 3 17.36V4.27C3 3.02 4.02 2 5.27 2H16.18C16.73 2 17.18 1.55 17.18 1Z" fill="black"/>
</svg>
