<svg width="24" height="24" viewBox="0 0 24 24" fill="none" xmlns="http://www.w3.org/2000/svg">
<g clip-path="url(#clip0_6489_100766)">
<path d="M20.5 0.5H5.5C3.85 0.5 2.5 1.85 2.5 3.5V5.5H1.5C0.95 5.5 0.5 5.95 0.5 6.5C0.5 7.05 0.95 7.5 1.5 7.5H2.5V11H1.5C0.95 11 0.5 11.45 0.5 12C0.5 12.55 0.95 13 1.5 13H2.5V16.5H1.5C0.95 16.5 0.5 16.95 0.5 17.5C0.5 18.05 0.95 18.5 1.5 18.5H2.5V20.5C2.5 22.15 3.85 23.5 5.5 23.5H20.5C22.15 23.5 23.5 22.15 23.5 20.5V3.5C23.5 1.85 22.15 0.5 20.5 0.5ZM21.5 20.5C21.5 21.05 21.05 21.5 20.5 21.5H5.5C4.95 21.5 4.5 21.05 4.5 20.5V18.5H5.5C6.05 18.5 6.5 18.05 6.5 17.5C6.5 16.95 6.05 16.5 5.5 16.5H4.5V13H5.5C6.05 13 6.5 12.55 6.5 12C6.5 11.45 6.05 11 5.5 11H4.5V7.5H5.5C6.05 7.5 6.5 7.05 6.5 6.5C6.5 5.95 6.05 5.5 5.5 5.5H4.5V3.5C4.5 2.95 4.95 2.5 5.5 2.5H20.5C21.05 2.5 21.5 2.95 21.5 3.5V20.5ZM16.89 12.46C17.75 11.67 18.3 10.55 18.3 9.3C18.3 6.93 16.37 5 14 5C11.63 5 9.7 6.93 9.7 9.3C9.7 10.55 10.25 11.67 11.11 12.46C9.12 13.51 7.75 15.59 7.75 18C7.75 18.55 8.2 19 8.75 19C9.3 19 9.75 18.55 9.75 18C9.75 15.66 11.66 13.75 14 13.75C16.34 13.75 18.25 15.66 18.25 18C18.25 18.55 18.7 19 19.25 19C19.8 19 20.25 18.55 20.25 18C20.25 15.6 18.88 13.51 16.89 12.46ZM14 11.6C12.73 11.6 11.7 10.57 11.7 9.3C11.7 8.03 12.73 7 14 7C15.27 7 16.3 8.03 16.3 9.3C16.3 10.57 15.27 11.6 14 11.6Z" fill="black"/>
</g>
<defs>
<clipPath id="clip0_6489_100766">
<rect width="24" height="24" fill="white"/>
</clipPath>
</defs>
</svg>
