<svg width="24" height="24" viewBox="0 0 24 24" fill="none" xmlns="http://www.w3.org/2000/svg">
<g clip-path="url(#clip0_7166_222253)">
<path d="M2 19V3C2 2.45 2.45 2 3 2H16C16.55 2 17 2.45 17 3V12H19V3C19 1.35 17.65 0 16 0H3C1.35 0 0 1.35 0 3V19C0 20.65 1.35 22 3 22H11.94V20H3C2.45 20 2 19.55 2 19ZM23 18H20V15C20 14.45 19.55 14 19 14C18.45 14 18 14.45 18 15V18H15C14.45 18 14 18.45 14 19C14 19.55 14.45 20 15 20H18V23C18 23.55 18.45 24 19 24C19.55 24 20 23.55 20 23V20H23C23.55 20 24 19.55 24 19C24 18.45 23.55 18 23 18ZM14.25 10H4.75C4.2 10 3.75 10.45 3.75 11C3.75 11.55 4.2 12 4.75 12H14.25C14.8 12 15.25 11.55 15.25 11C15.25 10.45 14.8 10 14.25 10ZM14.25 6H4.75C4.2 6 3.75 6.45 3.75 7C3.75 7.55 4.2 8 4.75 8H14.25C14.8 8 15.25 7.55 15.25 7C15.25 6.45 14.8 6 14.25 6ZM14.25 14H4.75C4.2 14 3.75 14.45 3.75 15C3.75 15.55 4.2 16 4.75 16H14.25C14.8 16 15.25 15.55 15.25 15C15.25 14.45 14.8 14 14.25 14Z" fill="black"/>
</g>
<defs>
<clipPath id="clip0_7166_222253">
<rect width="24" height="24" fill="white"/>
</clipPath>
</defs>
</svg>
