<svg width="24" height="24" viewBox="0 0 24 24" fill="none" xmlns="http://www.w3.org/2000/svg">
<path d="M18.1802 16.55V3.09003C18.1802 1.44003 16.8302 0.0900269 15.1802 0.0900269H4.4502C2.8002 0.0900269 1.4502 1.44003 1.4502 3.09003V16.54C1.4502 18.19 2.8002 19.54 4.4502 19.54H15.1802C16.8302 19.54 18.1802 18.19 18.1802 16.54V16.55ZM3.4502 16.55V3.09003C3.4502 2.54003 3.9002 2.09003 4.4502 2.09003H15.1802C15.7302 2.09003 16.1802 2.54003 16.1802 3.09003V16.54C16.1802 17.09 15.7302 17.54 15.1802 17.54H4.4502C3.9002 17.54 3.4502 17.09 3.4502 16.54V16.55ZM21.5502 5.55003C21.0002 5.55003 20.5502 6.00003 20.5502 6.55003V19.64C20.5502 20.89 19.5302 21.91 18.2802 21.91H7.3602C6.8102 21.91 6.3602 22.36 6.3602 22.91C6.3602 23.46 6.8102 23.91 7.3602 23.91H18.2702C20.6302 23.91 22.5402 21.99 22.5402 19.64V6.55003C22.5402 6.00003 22.0902 5.55003 21.5402 5.55003H21.5502ZM13.8202 12.57H5.8202C5.4102 12.57 5.0702 12.91 5.0702 13.32C5.0702 13.73 5.4102 14.07 5.8202 14.07H13.8202C14.2302 14.07 14.5702 13.73 14.5702 13.32C14.5702 12.91 14.2302 12.57 13.8202 12.57ZM13.8202 5.57003H5.8202C5.4102 5.57003 5.0702 5.91003 5.0702 6.32003C5.0702 6.73003 5.4102 7.07003 5.8202 7.07003H13.8202C14.2302 7.07003 14.5702 6.73003 14.5702 6.32003C14.5702 5.91003 14.2302 5.57003 13.8202 5.57003ZM13.8202 9.07003H5.8202C5.4102 9.07003 5.0702 9.41003 5.0702 9.82003C5.0702 10.23 5.4102 10.57 5.8202 10.57H13.8202C14.2302 10.57 14.5702 10.23 14.5702 9.82003C14.5702 9.41003 14.2302 9.07003 13.8202 9.07003Z" fill="black"/>
</svg>
