<svg width="24" height="24" viewBox="0 0 24 24" fill="none" xmlns="http://www.w3.org/2000/svg">
<path d="M11.24 15.32C11.43 15.51 11.68 15.62 11.95 15.63C12.23 15.64 12.48 15.53 12.67 15.34L17.18 10.83C17.57 10.44 17.57 9.81 17.18 9.42C16.79 9.03 16.16 9.03 15.77 9.42L13.01 12.18V2.5C13.01 1.95 12.56 1.5 12.01 1.5C11.46 1.5 11.01 1.95 11.01 2.5V12.19L8.26 9.34C8.06 9.14 7.8 9.03 7.54 9.03C7.28 9.03 7.04 9.12 6.85 9.31C6.45 9.69 6.44 10.33 6.83 10.72L11.26 15.31L11.24 15.32ZM21.5 11C20.95 11 20.5 11.45 20.5 12V19.12C20.5 19.88 19.88 20.5 19.12 20.5H4.88C4.12 20.5 3.5 19.88 3.5 19.12V12C3.5 11.45 3.05 11 2.5 11C1.95 11 1.5 11.45 1.5 12V19.12C1.5 20.98 3.01 22.5 4.88 22.5H19.13C20.99 22.5 22.51 20.99 22.51 19.12V12C22.51 11.45 22.06 11 21.51 11H21.5Z" fill="black"/>
</svg>
