<svg width="24" height="24" viewBox="0 0 24 24" fill="none" xmlns="http://www.w3.org/2000/svg">
<path d="M9 9.99609C7.9 9.99609 7 10.8961 7 11.9961C7 13.0961 7.9 13.9961 9 13.9961C10.1 13.9961 11 13.0961 11 11.9961C11 10.8961 10.1 9.99609 9 9.99609ZM9 3.99609C7.9 3.99609 7 4.89609 7 5.99609C7 7.09609 7.9 7.99609 9 7.99609C10.1 7.99609 11 7.09609 11 5.99609C11 4.89609 10.1 3.99609 9 3.99609ZM9 15.9961C7.9 15.9961 7 16.8961 7 17.9961C7 19.0961 7.9 19.9961 9 19.9961C10.1 19.9961 11 19.0961 11 17.9961C11 16.8961 10.1 15.9961 9 15.9961ZM15 7.99609C16.1 7.99609 17 7.09609 17 5.99609C17 4.89609 16.1 3.99609 15 3.99609C13.9 3.99609 13 4.89609 13 5.99609C13 7.09609 13.9 7.99609 15 7.99609ZM15 9.99609C13.9 9.99609 13 10.8961 13 11.9961C13 13.0961 13.9 13.9961 15 13.9961C16.1 13.9961 17 13.0961 17 11.9961C17 10.8961 16.1 9.99609 15 9.99609ZM15 15.9961C13.9 15.9961 13 16.8961 13 17.9961C13 19.0961 13.9 19.9961 15 19.9961C16.1 19.9961 17 19.0961 17 17.9961C17 16.8961 16.1 15.9961 15 15.9961Z" fill="#3E484D"/>
</svg>
