<svg width="24" height="24" viewBox="0 0 24 24" fill="none" xmlns="http://www.w3.org/2000/svg">
<path d="M21.77 6.58L17.42 2.23C16.45 1.26 14.87 1.26 13.9 2.23L4.27 11.86C4.02 12.11 3.84 12.42 3.75 12.77L1.53 21.25C1.44 21.59 1.53 21.96 1.79 22.21C1.98 22.4 2.23 22.5 2.49 22.5C2.57 22.5 2.66 22.49 2.74 22.47L11.23 20.25C11.57 20.16 11.89 19.98 12.14 19.73L21.77 10.1C22.24 9.63 22.5 9 22.5 8.34C22.5 7.68 22.24 7.05 21.77 6.58ZM6.08 19.54L4.46 17.92L5.3 14.69L9.3 18.69L6.07 19.53L6.08 19.54ZM20.36 8.69L11.25 17.8L6.2 12.75L15.31 3.64C15.5 3.45 15.82 3.45 16.02 3.64L20.37 7.99C20.5 8.12 20.52 8.27 20.52 8.34C20.52 8.41 20.5 8.57 20.37 8.69H20.36Z" fill="black"/>
</svg>
