<svg width="24" height="24" viewBox="0 0 24 24" fill="none" xmlns="http://www.w3.org/2000/svg">
<path d="M20 4.85502H11.35L11.02 4.20502C10.67 3.51502 9.96 3.08502 9.19 3.08502H4.08C2.66 3.08502 1.5 4.24502 1.5 5.66502V18.335C1.5 19.755 2.66 20.915 4.08 20.915H19.91C21.33 20.915 22.49 19.755 22.49 18.335V7.35502C22.49 5.97502 21.37 4.85502 19.99 4.85502H20ZM20.5 18.335C20.5 18.655 20.24 18.915 19.92 18.915H4.08C3.76 18.915 3.5 18.655 3.5 18.335V5.66502C3.5 5.34502 3.76 5.08502 4.08 5.08502L9.23 5.11502L11.22 9.01502C11.57 9.70502 12.28 10.135 13.05 10.135H20.49V18.335H20.5ZM20.5 8.13502L13.01 8.11502L12.37 6.86502H20C20.28 6.86502 20.5 7.08502 20.5 7.36502V8.14502V8.13502Z" fill="black"/>
</svg>
