<svg width="24" height="24" viewBox="0 0 24 24" fill="none" xmlns="http://www.w3.org/2000/svg">
<path d="M8.5 2.5H3.5C2.95 2.5 2.5 2.95 2.5 3.5V8.5C2.5 9.05 2.95 9.5 3.5 9.5C4.05 9.5 4.5 9.05 4.5 8.5V4.5H8.5C9.05 4.5 9.5 4.05 9.5 3.5C9.5 2.95 9.05 2.5 8.5 2.5ZM8.5 19.5H4.5V15.5C4.5 14.95 4.05 14.5 3.5 14.5C2.95 14.5 2.5 14.95 2.5 15.5V20.5C2.5 21.05 2.95 21.5 3.5 21.5H8.5C9.05 21.5 9.5 21.05 9.5 20.5C9.5 19.95 9.05 19.5 8.5 19.5ZM20.5 2.5H15.5C14.95 2.5 14.5 2.95 14.5 3.5C14.5 4.05 14.95 4.5 15.5 4.5H19.5V8.5C19.5 9.05 19.95 9.5 20.5 9.5C21.05 9.5 21.5 9.05 21.5 8.5V3.5C21.5 2.95 21.05 2.5 20.5 2.5ZM20.5 14.5C19.95 14.5 19.5 14.95 19.5 15.5V19.5H15.5C14.95 19.5 14.5 19.95 14.5 20.5C14.5 21.05 14.95 21.5 15.5 21.5H20.5C21.05 21.5 21.5 21.05 21.5 20.5V15.5C21.5 14.95 21.05 14.5 20.5 14.5Z" fill="black"/>
</svg>
