<svg width="24" height="24" viewBox="0 0 24 24" fill="none" xmlns="http://www.w3.org/2000/svg">
<path d="M20.5 14.5H15.5C14.95 14.5 14.5 14.95 14.5 15.5V20.5C14.5 21.05 14.95 21.5 15.5 21.5C16.05 21.5 16.5 21.05 16.5 20.5V16.5H20.5C21.05 16.5 21.5 16.05 21.5 15.5C21.5 14.95 21.05 14.5 20.5 14.5ZM15.5 9.5H20.5C21.05 9.5 21.5 9.05 21.5 8.5C21.5 7.95 21.05 7.5 20.5 7.5H16.5V3.5C16.5 2.95 16.05 2.5 15.5 2.5C14.95 2.5 14.5 2.95 14.5 3.5V8.5C14.5 9.05 14.95 9.5 15.5 9.5ZM8.5 14.5H3.5C2.95 14.5 2.5 14.95 2.5 15.5C2.5 16.05 2.95 16.5 3.5 16.5H7.5V20.5C7.5 21.05 7.95 21.5 8.5 21.5C9.05 21.5 9.5 21.05 9.5 20.5V15.5C9.5 14.95 9.05 14.5 8.5 14.5ZM8.5 2.5C7.95 2.5 7.5 2.95 7.5 3.5V7.5H3.5C2.95 7.5 2.5 7.95 2.5 8.5C2.5 9.05 2.95 9.5 3.5 9.5H8.5C9.05 9.5 9.5 9.05 9.5 8.5V3.5C9.5 2.95 9.05 2.5 8.5 2.5Z" fill="black"/>
</svg>
