<svg width="24" height="24" viewBox="0 0 24 24" fill="none" xmlns="http://www.w3.org/2000/svg">
<path d="M23 2.25H1C0.45 2.25 0 2.7 0 3.25V7.25C0 7.8 0.45 8.25 1 8.25H1.5V20.75C1.5 21.3 1.95 21.75 2.5 21.75H21.5C22.05 21.75 22.5 21.3 22.5 20.75V8.25H23C23.55 8.25 24 7.8 24 7.25V3.25C24 2.7 23.55 2.25 23 2.25ZM2 4.25H22V6.25H2V4.25ZM7.5 14.83H16.5V16.66H7.5V14.83ZM16.5 13.33H7.5V11.75H16.5V13.33ZM7.5 19.75V18.17H16.5V19.75H7.5ZM20.5 19.75H18.5V10.75C18.5 10.2 18.05 9.75 17.5 9.75H6.5C5.95 9.75 5.5 10.2 5.5 10.75V19.75H3.5V8.25H20.5V19.75Z" fill="black"/>
</svg>
