<svg width="24" height="24" viewBox="0 0 24 24" fill="none" xmlns="http://www.w3.org/2000/svg">
<g clip-path="url(#clip0_11150_317494)">
<path d="M23 21.5H2V1.5C2 0.95 1.55 0.5 1 0.5C0.45 0.5 0 0.95 0 1.5V22.5C0 23.05 0.45 23.5 1 23.5H23C23.55 23.5 24 23.05 24 22.5C24 21.95 23.55 21.5 23 21.5ZM5.75 18.43C7.2 18.43 8.37 17.25 8.37 15.81C8.37 15.16 8.12 14.56 7.72 14.1L10.19 10.23C10.42 10.3 10.66 10.34 10.91 10.34C11.45 10.34 11.95 10.18 12.37 9.89L13.66 10.95C13.53 11.26 13.45 11.61 13.45 11.97C13.45 13.42 14.63 14.59 16.07 14.59C17.51 14.59 18.69 13.41 18.69 11.97C18.69 11.32 18.44 10.73 18.05 10.27L20.51 6.46C20.74 6.53 20.98 6.57 21.23 6.57C22.68 6.57 23.85 5.39 23.85 3.95C23.85 2.51 22.67 1.33 21.23 1.33C19.79 1.33 18.61 2.51 18.61 3.95C18.61 4.6 18.86 5.19 19.25 5.65L16.79 9.46C16.56 9.39 16.32 9.35 16.07 9.35C15.53 9.35 15.03 9.51 14.61 9.8L13.32 8.74C13.45 8.43 13.53 8.08 13.53 7.72C13.53 6.27 12.35 5.1 10.91 5.1C9.47 5.1 8.29 6.28 8.29 7.72C8.29 8.37 8.54 8.97 8.94 9.43L6.47 13.3C6.24 13.23 6 13.19 5.75 13.19C4.3 13.19 3.13 14.37 3.13 15.81C3.13 17.25 4.31 18.43 5.75 18.43ZM21.25 2.84C21.87 2.84 22.37 3.34 22.37 3.96C22.37 4.58 21.87 5.08 21.25 5.08C20.63 5.08 20.13 4.58 20.13 3.96C20.13 3.34 20.63 2.84 21.25 2.84ZM16.08 10.86C16.7 10.86 17.2 11.36 17.2 11.98C17.2 12.6 16.7 13.1 16.08 13.1C15.46 13.1 14.96 12.6 14.96 11.98C14.96 11.36 15.46 10.86 16.08 10.86ZM10.92 6.59C11.54 6.59 12.04 7.09 12.04 7.71C12.04 8.33 11.54 8.83 10.92 8.83C10.3 8.83 9.8 8.33 9.8 7.71C9.8 7.09 10.3 6.59 10.92 6.59ZM5.75 14.68C6.37 14.68 6.87 15.18 6.87 15.8C6.87 16.42 6.37 16.92 5.75 16.92C5.13 16.92 4.63 16.42 4.63 15.8C4.63 15.18 5.13 14.68 5.75 14.68Z" fill="black"/>
</g>
<defs>
<clipPath id="clip0_11150_317494">
<rect width="24" height="24" fill="white"/>
</clipPath>
</defs>
</svg>
