<svg width="24" height="24" viewBox="0 0 24 24" fill="none" xmlns="http://www.w3.org/2000/svg">
<path d="M12.22 5.33C10.84 5.33 9.77 5.65 8.95 6.3C8.36 6.76 7.91 7.42 7.63 8.21C7.62 8.24 7.49 8.63 7.49 8.81C7.49 9.49 8.04 10.04 8.72 10.04C9.01 10.04 9.23 9.96 9.42 9.81C9.63 9.66 9.8 9.33 10.01 8.94C10.22 8.55 11.03 7.45 12.1 7.45C13.3 7.45 14.02 8 14.02 8.93C14.02 9.58 13.78 9.89 12.76 10.57C11.74 11.23 11.57 11.39 11.23 11.81C10.77 12.39 10.58 13.02 10.58 13.96C10.58 13.96 10.58 14.19 10.66 14.41C10.82 14.84 11.23 15.15 11.72 15.15C12.21 15.15 12.61 14.84 12.78 14.42C12.83 14.15 12.86 14 12.86 14C12.86 13.08 13.34 12.75 14.22 12.15L14.48 11.97C15.59 11.2 16.51 10.42 16.51 8.8C16.51 6.7 14.83 5.34 12.22 5.34V5.33ZM11.71 16.01C10.98 16.01 10.38 16.6 10.38 17.34C10.38 18.08 10.97 18.67 11.71 18.67C12.45 18.67 13.04 18.08 13.04 17.34C13.04 16.6 12.45 16.01 11.71 16.01ZM19.08 3.58C17.1 1.92 14.59 1 12 1C5.93 1 1 5.93 1 12C1 18.07 5.93 23 12 23C18.07 23 23 18.07 23 12C23 8.75 21.57 5.68 19.08 3.58ZM12 21C7.04 21 3 16.96 3 12C3 7.04 7.04 3 12 3C14.12 3 16.17 3.75 17.79 5.11C19.83 6.83 21 9.34 21 12C21 16.96 16.96 21 12 21Z" fill="black"/>
</svg>
