<svg width="24" height="24" viewBox="0 0 24 24" fill="none" xmlns="http://www.w3.org/2000/svg">
<path d="M23.6802 12.2599L12.7702 2.25986C12.3902 1.90986 11.8102 1.90986 11.4302 2.24986L0.3402 12.0799C-0.0698001 12.4499 -0.1098 13.0799 0.2502 13.4899C0.6202 13.8999 1.2502 13.9399 1.6602 13.5799L2.7502 12.6199V19.5099C2.7502 20.8899 3.9402 22.0099 5.4002 22.0099H18.6002C20.0602 22.0099 21.2502 20.8899 21.2502 19.5099V12.7599L22.3202 13.7499C22.5102 13.9299 22.7502 14.0099 23.0002 14.0099C23.2702 14.0099 23.5402 13.8999 23.7402 13.6899C24.1102 13.2799 24.0902 12.6499 23.6802 12.2799V12.2599ZM14.3002 19.9999H9.7002V14.9999H14.3002V19.9999ZM19.2502 11.1799V19.4999C19.2502 19.7699 18.9502 19.9999 18.6002 19.9999H16.3002V14.9999C16.3002 13.8999 15.4002 12.9999 14.3002 12.9999H9.7002C8.6002 12.9999 7.7002 13.8999 7.7002 14.9999V19.9999H5.4002C5.0502 19.9999 4.7502 19.7699 4.7502 19.4999V11.1799C4.7502 11.0799 4.7202 10.9899 4.6902 10.8999L12.0802 4.34986L19.2902 10.9599C19.2702 11.0299 19.2502 11.0999 19.2502 11.1799Z" fill="black"/>
</svg>
