<svg width="24" height="24" viewBox="0 0 24 24" fill="none" xmlns="http://www.w3.org/2000/svg">
<g clip-path="url(#clip0_6916_73738)">
<path d="M1 17.6406C0.45 17.6406 0 18.0906 0 18.6406C0 19.1906 0.45 19.6406 1 19.6406H7.43C7.19 19.0006 7.02 18.3306 6.92 17.6406H1ZM1 4.64062H17C17.55 4.64062 18 4.19063 18 3.64062C18 3.09062 17.55 2.64062 17 2.64062H1C0.45 2.64062 0 3.09062 0 3.64062C0 4.19063 0.45 4.64062 1 4.64062ZM1 9.64062H9.57C10.4 8.80063 11.38 8.12062 12.47 7.64062H1C0.45 7.64062 0 8.09062 0 8.64062C0 9.19063 0.45 9.64062 1 9.64062ZM0 13.6406C0 14.1906 0.45 14.6406 1 14.6406H6.98C7.1 13.9506 7.3 13.2706 7.56 12.6406H1C0.45 12.6406 0 13.0906 0 13.6406ZM20.3 13.6206C19.91 13.2306 19.28 13.2306 18.89 13.6206L15.23 17.2806L13.76 15.8106C13.37 15.4206 12.74 15.4206 12.35 15.8106C11.96 16.2006 11.96 16.8306 12.35 17.2206L14.53 19.4006C14.73 19.6006 14.98 19.6906 15.24 19.6906C15.5 19.6906 15.75 19.5906 15.95 19.4006L20.31 15.0406C20.7 14.6506 20.7 14.0206 20.31 13.6306L20.3 13.6206ZM21.26 10.4406C19.88 9.28062 18.13 8.64062 16.32 8.64062C12.09 8.64062 8.64 12.0906 8.64 16.3206C8.64 20.5506 12.09 24.0006 16.32 24.0006C20.55 24.0006 24 20.5506 24 16.3206C24 14.0506 23 11.9006 21.26 10.4406ZM16.32 22.0006C13.19 22.0006 10.64 19.4506 10.64 16.3206C10.64 13.1906 13.19 10.6406 16.32 10.6406C17.66 10.6406 18.95 11.1106 19.97 11.9706C21.26 13.0506 22 14.6406 22 16.3206C22 19.4506 19.45 22.0006 16.32 22.0006Z" fill="black"/>
</g>
<defs>
<clipPath id="clip0_6916_73738">
<rect width="24" height="24" fill="white"/>
</clipPath>
</defs>
</svg>
