<svg width="20" height="20" viewBox="0 0 20 20" fill="none" xmlns="http://www.w3.org/2000/svg">
<path d="M18.5083 9.44167L14.75 5.68333C14.425 5.35833 13.9 5.35833 13.575 5.68333C13.25 6.00833 13.25 6.53333 13.575 6.85833L15.875 9.15833H7.80833C7.35 9.15833 6.975 9.53333 6.975 9.99167C6.975 10.45 7.35 10.825 7.80833 10.825H15.8833L13.5083 13.1167C13.3417 13.2833 13.25 13.5 13.25 13.7167C13.25 13.9333 13.325 14.1333 13.4833 14.2917C13.8 14.625 14.3333 14.6333 14.6583 14.3083L18.4833 10.6167C18.6417 10.4583 18.7333 10.25 18.7417 10.025C18.75 9.79167 18.6583 9.58333 18.5 9.425L18.5083 9.44167ZM10 17.0833H4.06667C3.43333 17.0833 2.91667 16.5667 2.91667 15.9333V4.06667C2.91667 3.43333 3.43333 2.91667 4.06667 2.91667H10C10.4583 2.91667 10.8333 2.54167 10.8333 2.08333C10.8333 1.625 10.4583 1.25 10 1.25H4.06667C2.50833 1.25 1.25 2.50833 1.25 4.06667V15.9417C1.25 17.4917 2.50833 18.7583 4.06667 18.7583H10C10.4583 18.7583 10.8333 18.3833 10.8333 17.925C10.8333 17.4667 10.4583 17.0917 10 17.0917V17.0833Z" fill="#666666"/>
</svg>
