<svg width="24" height="24" viewBox="0 0 24 24" fill="none" xmlns="http://www.w3.org/2000/svg">
<path d="M20 4H4C2.62 4 1.5 5.12 1.5 6.5V17.5C1.5 18.88 2.62 20 4 20H20C21.38 20 22.5 18.88 22.5 17.5V6.5C22.5 5.12 21.38 4 20 4ZM4 6H20C20.28 6 20.5 6.22 20.5 6.5V9.08L13.65 13.57C12.76 14.17 11.6 14.17 10.7 13.57L3.5 8.84V6.5C3.5 6.22 3.72 6 4 6ZM20 18H4C3.72 18 3.5 17.78 3.5 17.5V11.23L9.6 15.23C10.39 15.76 11.29 16.02 12.19 16.02C13.09 16.02 13.98 15.76 14.76 15.23L20.5 11.46V17.49C20.5 17.77 20.28 17.99 20 17.99V18Z" fill="black"/>
</svg>
