<svg width="24" height="24" viewBox="0 0 24 24" fill="none" xmlns="http://www.w3.org/2000/svg">
<g clip-path="url(#clip0_6489_129365)">
<path d="M16.8866 6.60162C17.0063 6.06287 16.9963 5.51415 16.8866 4.99536H19.1513C19.6002 4.99536 19.9694 5.3645 19.9694 5.81345V12.1587H21.9647V5.81345C21.9647 4.26705 20.7077 3 19.1513 3H16.1183C15.6095 3 15.1506 3.2594 14.8812 3.6884C14.6218 4.10742 14.5919 4.62622 14.8114 5.06519C14.981 5.4044 15.0309 5.7935 14.9411 6.18259C14.8014 6.85104 14.2327 7.38978 13.5643 7.50951C13.0355 7.5993 12.5367 7.45962 12.1476 7.13039C11.7585 6.80115 11.539 6.32227 11.539 5.81345C11.539 5.55406 11.5989 5.31461 11.7086 5.08515C11.9281 4.63619 11.8982 4.10742 11.6388 3.6884C11.3694 3.2594 10.9105 3.00998 10.4116 3.00998H7.3687C5.8223 3.00998 4.55525 4.26705 4.55525 5.82343V8.54709C4.03646 8.42737 3.48774 8.42737 2.94899 8.54709C1.46245 8.83642 0.315119 10.0336 0.0557227 11.5102C-0.133836 12.6076 0.165467 13.7151 0.873819 14.5531C1.76175 15.6007 3.21836 16.0895 4.5353 15.7803V18.5039C4.5353 20.0503 5.79237 21.3174 7.34875 21.3174H12.0279V19.322H7.34875C6.8998 19.322 6.53065 18.9529 6.53065 18.5039V15.012C6.53065 14.5132 6.27126 14.0443 5.85223 13.7849C5.61279 13.6353 5.35339 13.5654 5.08402 13.5654C4.86453 13.5654 4.65502 13.6153 4.44551 13.7151C3.75711 14.0443 2.88913 13.8547 2.40027 13.2661C2.07103 12.867 1.93136 12.3682 2.02115 11.8494C2.13089 11.181 2.67962 10.6223 3.33808 10.4726C3.72718 10.3928 4.1063 10.4327 4.45548 10.6023C4.89446 10.8218 5.41326 10.7919 5.83228 10.5325C6.26128 10.2631 6.52068 9.79419 6.52068 9.28537V5.7935C6.52068 5.34454 6.88982 4.9754 7.33877 4.9754H9.6035C9.54364 5.24478 9.51371 5.51415 9.51371 5.7935C9.51371 6.89095 9.9926 7.92853 10.8306 8.63688C11.6687 9.34523 12.7861 9.64454 13.8736 9.45498C15.3501 9.20556 16.5473 8.04825 16.8666 6.58167L16.8866 6.60162ZM23.0023 18.1448H20.0093V15.1517C20.0093 14.603 19.5603 14.154 19.0116 14.154C18.4629 14.154 18.0139 14.603 18.0139 15.1517V18.1448H15.0209C14.4722 18.1448 14.0232 18.5937 14.0232 19.1424C14.0232 19.6912 14.4722 20.1401 15.0209 20.1401H18.0139V23.1331C18.0139 23.6819 18.4629 24.1308 19.0116 24.1308C19.5603 24.1308 20.0093 23.6819 20.0093 23.1331V20.1401H23.0023C23.551 20.1401 24 19.6912 24 19.1424C24 18.5937 23.551 18.1448 23.0023 18.1448Z" fill="black"/>
</g>
<defs>
<clipPath id="clip0_6489_129365">
<rect width="24" height="24" fill="white"/>
</clipPath>
</defs>
</svg>
