<svg width="20" height="20" viewBox="0 0 20 20" fill="none" xmlns="http://www.w3.org/2000/svg">
<path d="M0.833333 14.6992C0.375 14.6992 0 15.0742 0 15.5326C0 15.9909 0.375 16.3659 0.833333 16.3659H6.19167C5.99167 15.8326 5.85 15.2742 5.76667 14.6992H0.833333ZM0.833333 3.86589H14.1667C14.625 3.86589 15 3.49089 15 3.03255C15 2.57422 14.625 2.19922 14.1667 2.19922H0.833333C0.375 2.19922 0 2.57422 0 3.03255C0 3.49089 0.375 3.86589 0.833333 3.86589ZM0.833333 8.03255H7.975C8.66667 7.33255 9.48333 6.76588 10.3917 6.36589H0.833333C0.375 6.36589 0 6.74088 0 7.19922C0 7.65755 0.375 8.03255 0.833333 8.03255ZM0 11.3659C0 11.8242 0.375 12.1992 0.833333 12.1992H5.81667C5.91667 11.6242 6.08333 11.0576 6.3 10.5326H0.833333C0.375 10.5326 0 10.9076 0 11.3659ZM16.9167 11.3492C16.5917 11.0242 16.0667 11.0242 15.7417 11.3492L12.6917 14.3992L11.4667 13.1742C11.1417 12.8492 10.6167 12.8492 10.2917 13.1742C9.96667 13.4992 9.96667 14.0242 10.2917 14.3492L12.1083 16.1659C12.275 16.3326 12.4833 16.4076 12.7 16.4076C12.9167 16.4076 13.125 16.3242 13.2917 16.1659L16.925 12.5326C17.25 12.2076 17.25 11.6826 16.925 11.3576L16.9167 11.3492ZM17.7167 8.69922C16.5667 7.73255 15.1083 7.19922 13.6 7.19922C10.075 7.19922 7.2 10.0742 7.2 13.5992C7.2 17.1242 10.075 19.9992 13.6 19.9992C17.125 19.9992 20 17.1242 20 13.5992C20 11.7076 19.1667 9.91588 17.7167 8.69922ZM13.6 18.3326C10.9917 18.3326 8.86667 16.2076 8.86667 13.5992C8.86667 10.9909 10.9917 8.86588 13.6 8.86588C14.7167 8.86588 15.7917 9.25755 16.6417 9.97422C17.7167 10.8742 18.3333 12.1992 18.3333 13.5992C18.3333 16.2076 16.2083 18.3326 13.6 18.3326Z" fill="#666666"/>
</svg>
