<svg width="24" height="24" viewBox="0 0 24 24" fill="none" xmlns="http://www.w3.org/2000/svg">
<path d="M18.43 4.33438C16.63 2.82438 14.35 1.99438 12 1.99438C6.49 1.99438 2 6.48438 2 11.9944C2 17.5044 6.49 21.9944 12 21.9944C17.51 21.9944 22 17.5044 22 11.9944C22 9.03438 20.7 6.24438 18.43 4.33438ZM12 19.9944C7.59 19.9944 4 16.4044 4 11.9944C4 7.58438 7.59 3.99438 12 3.99438C13.88 3.99438 15.71 4.66438 17.15 5.86438C18.96 7.39438 20 9.62438 20 11.9944C20 16.4044 16.41 19.9944 12 19.9944ZM17 10.9944H13V6.99438C13 6.44438 12.55 5.99438 12 5.99438C11.45 5.99438 11 6.44438 11 6.99438V10.9944H7C6.45 10.9944 6 11.4444 6 11.9944C6 12.5444 6.45 12.9944 7 12.9944H11V16.9944C11 17.5444 11.45 17.9944 12 17.9944C12.55 17.9944 13 17.5444 13 16.9944V12.9944H17C17.55 12.9944 18 12.5444 18 11.9944C18 11.4444 17.55 10.9944 17 10.9944Z" fill="black"/>
</svg>
