<svg width="24" height="24" viewBox="0 0 24 24" fill="none" xmlns="http://www.w3.org/2000/svg">
<path d="M23.72 12.43L21.25 9.88C21.06 9.69 20.81 9.58 20.54 9.57C20.24 9.57 20.01 9.67 19.82 9.86L17.31 12.37C16.92 12.76 16.92 13.39 17.31 13.78C17.7 14.17 18.33 14.17 18.72 13.78L19.37 13.13C18.72 16.62 15.66 19.26 11.99 19.26C10.22 19.26 8.51002 18.64 7.16002 17.5C6.74002 17.14 6.11002 17.2 5.75002 17.62C5.39002 18.04 5.45002 18.67 5.87002 19.03C7.58002 20.47 9.75002 21.26 11.99 21.26C16.84 21.26 20.84 17.62 21.42 12.93L22.27 13.81C22.47 14.01 22.73 14.12 22.99 14.12C23.25 14.12 23.49 14.03 23.68 13.84C24.08 13.46 24.09 12.82 23.7 12.43H23.72ZM6.68002 9.74C6.29002 9.35 5.66002 9.35 5.27002 9.74L4.62002 10.39C5.27002 6.9 8.33002 4.25 12 4.25C13.77 4.25 15.48 4.87 16.83 6.01C17.25 6.37 17.88 6.31 18.24 5.89C18.6 5.47 18.54 4.84 18.12 4.48C16.41 3.04 14.24 2.25 12 2.25C7.15002 2.25 3.15002 5.89 2.57002 10.58L1.72002 9.7C1.34002 9.3 0.700019 9.29 0.310019 9.68C-0.0899811 10.06 -0.0999811 10.7 0.290019 11.09L2.76002 13.64C2.95002 13.83 3.20002 13.94 3.47002 13.95C3.74002 13.95 3.99002 13.84 4.18002 13.66L6.69002 11.15C7.08002 10.76 7.08002 10.13 6.69002 9.74H6.68002Z" fill="black"/>
</svg>
