<svg width="24" height="24" viewBox="0 0 24 24" fill="none" xmlns="http://www.w3.org/2000/svg">
<path d="M16.0005 8.74982H5.41055L9.20055 4.95982C9.59055 4.56982 9.59055 3.93982 9.20055 3.54982C8.81055 3.15982 8.18055 3.15982 7.79055 3.54982L2.29055 9.03982C1.90055 9.42982 1.90055 10.0598 2.29055 10.4498L7.79055 15.9498C7.99055 16.1498 8.24055 16.2398 8.50055 16.2398C8.76055 16.2398 9.01055 16.1398 9.21055 15.9498C9.60055 15.5598 9.60055 14.9298 9.21055 14.5398L5.42055 10.7498H16.0105C18.2205 10.7498 20.0105 12.5398 20.0105 14.7498C20.0105 16.9598 18.2205 18.7498 16.0105 18.7498H12.0105C11.4605 18.7498 11.0105 19.1998 11.0105 19.7498C11.0105 20.2998 11.4605 20.7498 12.0105 20.7498H16.0105C19.3205 20.7498 22.0105 18.0598 22.0105 14.7498C22.0105 11.4398 19.3205 8.74982 16.0105 8.74982H16.0005Z" fill="black"/>
</svg>
