<svg width="24" height="24" viewBox="0 0 24 24" fill="none" xmlns="http://www.w3.org/2000/svg">
<path d="M21.71 20.2899L16.75 15.3299C19.28 12.0899 19.07 7.38994 16.09 4.40994C12.86 1.19994 7.63 1.19994 4.41 4.40994C1.19 7.61994 1.19 12.8599 4.41 16.0799C6.02 17.6899 8.13 18.4899 10.24 18.4899C12.04 18.4899 13.83 17.8999 15.32 16.7399L20.28 21.6999C20.48 21.8999 20.73 21.9899 20.99 21.9899C21.25 21.9899 21.5 21.8899 21.7 21.6999C22.09 21.3099 22.09 20.6799 21.7 20.2899H21.71ZM5.82999 14.6699C4.64999 13.4899 3.99999 11.9199 3.99999 10.2499C3.99999 8.57994 4.64999 7.00994 5.82999 5.82994C7.00999 4.64994 8.65 3.99994 10.25 3.99994C11.85 3.99994 13.45 4.60994 14.67 5.82994C15.89 7.04994 16.5 8.57994 16.5 10.2499C16.5 11.9199 15.85 13.4899 14.67 14.6699C12.23 17.1099 8.26999 17.1099 5.82999 14.6699Z" fill="black"/>
</svg>
