<svg width="24" height="24" viewBox="0 0 24 24" fill="none" xmlns="http://www.w3.org/2000/svg">
<path d="M20.1293 10.6328L5.14926 3.58276C4.56926 3.30276 3.88926 3.43276 3.43926 3.88276C2.97926 4.34276 2.86926 5.02276 3.14926 5.60276L6.24926 11.9928L3.14926 18.3928C2.86926 18.9728 2.97926 19.6528 3.42926 20.1128C3.71926 20.4128 4.09926 20.5628 4.49926 20.5628C4.71926 20.5628 4.93926 20.5128 5.14926 20.4128L20.1293 13.3628C20.6593 13.1128 20.9893 12.5928 20.9993 12.0028C20.9993 11.4128 20.6693 10.8928 20.1293 10.6328ZM5.55926 5.98276L16.2093 10.9928H7.98926L5.55926 5.98276ZM7.98926 12.9928H16.2093L5.55926 18.0028L7.98926 12.9928Z" fill="black"/>
</svg>
