<svg width="24" height="24" viewBox="0 0 24 24" fill="none" xmlns="http://www.w3.org/2000/svg">
<g clip-path="url(#clip0_6489_124610)">
<path d="M21.8605 8.76H20.1905C20.1505 8.67 20.1205 8.58 20.0805 8.49L21.2605 7.31C21.6605 6.91 21.8805 6.37 21.8805 5.8C21.8805 5.23 21.6605 4.69 21.2605 4.29L19.7005 2.73C18.8705 1.9 17.5105 1.9 16.6805 2.73L15.5005 3.91C15.4105 3.87 15.3205 3.84 15.2305 3.8V2.13C15.2305 0.95 14.2705 0 13.0905 0H10.8905C9.71047 0 8.75047 0.96 8.75047 2.13V3.8C8.66047 3.84 8.57047 3.87 8.48047 3.91L7.30047 2.73C6.90047 2.33 6.36047 2.11 5.79047 2.11C5.22047 2.11 4.68047 2.33 4.28047 2.73L2.72047 4.29C1.89047 5.12 1.89047 6.48 2.72047 7.31L3.90047 8.49C3.86047 8.58 3.82047 8.67 3.79047 8.76H2.12047C0.940469 8.76 -0.0195312 9.72 -0.0195312 10.89V13.09C-0.0195312 14.27 0.940469 15.22 2.12047 15.22H3.79047C3.83047 15.31 3.86047 15.4 3.90047 15.49L2.72047 16.67C2.32047 17.07 2.09047 17.61 2.09047 18.18C2.09047 18.75 2.31047 19.29 2.71047 19.69L4.27047 21.25C4.67047 21.65 5.21047 21.88 5.78047 21.88C6.35047 21.88 6.89047 21.66 7.29047 21.26L8.47047 20.08C8.56047 20.12 8.65047 20.15 8.74047 20.19V21.86C8.74047 23.04 9.70047 23.99 10.8805 23.99H13.0805C14.2605 23.99 15.2205 23.03 15.2205 21.86V20.19C15.3105 20.15 15.4005 20.12 15.4905 20.08L16.6705 21.26C17.0705 21.66 17.6105 21.88 18.1805 21.88C18.7505 21.88 19.2905 21.66 19.6905 21.26L21.2505 19.7C21.6505 19.3 21.8705 18.76 21.8705 18.19C21.8705 17.62 21.6505 17.08 21.2505 16.68L20.0705 15.5C20.1105 15.41 20.1505 15.32 20.1805 15.23H21.8505C23.0305 15.23 23.9905 14.27 23.9905 13.1V10.9C23.9905 9.72 23.0305 8.77 21.8505 8.77L21.8605 8.76ZM22.0005 13.1C22.0005 13.17 21.9405 13.23 21.8605 13.23H18.7305L18.5205 13.95C18.3905 14.4 18.2105 14.83 17.9905 15.23L17.6405 15.89L19.8505 18.1C19.8505 18.1 19.8905 18.17 19.8905 18.19C19.8905 18.21 19.8905 18.25 19.8505 18.29L18.2905 19.85C18.2905 19.85 18.2205 19.89 18.2005 19.89C18.1805 19.89 18.1405 19.89 18.1105 19.85L15.9005 17.64L15.2405 18C14.8405 18.22 14.4105 18.39 13.9605 18.53L13.2505 18.74V21.87C13.2505 21.94 13.1905 22 13.1105 22H10.9105C10.8405 22 10.7705 21.94 10.7705 21.87V18.75L10.0605 18.54C9.60047 18.4 9.17047 18.22 8.78047 18.01L8.12047 17.65L5.91047 19.86C5.91047 19.86 5.76047 19.91 5.72047 19.86L4.16047 18.3C4.16047 18.3 4.12047 18.23 4.12047 18.2C4.12047 18.17 4.12047 18.14 4.16047 18.1L6.37047 15.89L6.02047 15.23C5.80047 14.83 5.62047 14.4 5.49047 13.95L5.28047 13.24H2.15047C2.08047 13.24 2.01047 13.18 2.01047 13.11V10.91C2.01047 10.84 2.07047 10.78 2.15047 10.78H5.28047L5.49047 10.07C5.63047 9.62 5.80047 9.18 6.02047 8.79L6.38047 8.13L4.17047 5.92C4.12047 5.87 4.12047 5.78 4.17047 5.73L5.73047 4.17C5.73047 4.17 5.88047 4.13 5.92047 4.17L8.13047 6.38L8.79047 6.02C9.18047 5.81 9.61047 5.63 10.0705 5.49L10.7805 5.28V2.16C10.7805 2.09 10.8405 2.03 10.9205 2.03H13.1205C13.1905 2.03 13.2605 2.09 13.2605 2.16V5.29L13.9705 5.5C14.4305 5.64 14.8605 5.81 15.2505 6.03L15.9105 6.39L18.1205 4.18C18.1705 4.13 18.2605 4.13 18.3105 4.18L19.8705 5.74C19.8705 5.74 19.9105 5.89 19.8705 5.93L17.6605 8.14L18.0205 8.8C18.2305 9.19 18.4105 9.62 18.5505 10.08L18.7605 10.8H21.8905C21.9605 10.8 22.0305 10.86 22.0305 10.93V13.13L22.0005 13.1ZM12.0005 7.7C9.63047 7.7 7.70047 9.63 7.70047 12C7.70047 14.37 9.63047 16.3 12.0005 16.3C14.3705 16.3 16.3005 14.37 16.3005 12C16.3005 9.63 14.3705 7.7 12.0005 7.7ZM12.0005 14.3C10.7305 14.3 9.70047 13.27 9.70047 12C9.70047 10.73 10.7305 9.7 12.0005 9.7C13.2705 9.7 14.3005 10.73 14.3005 12C14.3005 13.27 13.2705 14.3 12.0005 14.3Z" fill="black"/>
</g>
<defs>
<clipPath id="clip0_6489_124610">
<rect width="24" height="24" fill="white"/>
</clipPath>
</defs>
</svg>
