<svg width="24" height="24" viewBox="0 0 24 24" fill="none" xmlns="http://www.w3.org/2000/svg">
<path d="M6.55989 22.5597C6.10989 22.5597 5.64989 22.4197 5.26989 22.1397C4.58989 21.6397 4.24989 20.8197 4.38989 19.9897L5.22989 15.0797L1.65989 11.6097C1.05989 11.0197 0.839888 10.1597 1.09989 9.34969C1.35989 8.54969 2.03989 7.96969 2.87989 7.84969L7.80989 7.12969L10.0199 2.65969C10.3899 1.89969 11.1499 1.42969 11.9899 1.42969C12.8299 1.42969 13.5899 1.89969 13.9599 2.65969L16.1699 7.12969L21.0999 7.84969C21.9299 7.96969 22.6199 8.53969 22.8799 9.34969C23.1399 10.1497 22.9299 11.0197 22.3199 11.6097L18.7499 15.0797L19.5899 19.9897C19.7299 20.8197 19.3999 21.6497 18.7099 22.1397C18.0299 22.6397 17.1399 22.6997 16.3899 22.3097L11.9699 19.9897L7.54989 22.3097C7.22989 22.4797 6.86989 22.5597 6.52989 22.5597H6.55989ZM11.9999 3.43969C11.9199 3.43969 11.8599 3.47969 11.8199 3.54969L9.37989 8.48969C9.22989 8.77969 8.94989 8.98969 8.62989 9.03969L3.17989 9.82969C3.09989 9.83969 3.03989 9.88969 3.01989 9.96969C2.98989 10.0497 3.01989 10.1197 3.06989 10.1797L7.01989 14.0197C7.25989 14.2497 7.35989 14.5797 7.30989 14.9097L6.37989 20.3397C6.36989 20.4197 6.38989 20.4897 6.45989 20.5397C6.52989 20.5897 6.59989 20.5897 6.66989 20.5597L11.5499 17.9997C11.8399 17.8497 12.1899 17.8497 12.4799 17.9997L17.3599 20.5597C17.4299 20.5997 17.4999 20.5897 17.5699 20.5397C17.6399 20.4897 17.6599 20.4297 17.6499 20.3397L16.7199 14.9097C16.6599 14.5897 16.7699 14.2497 17.0099 14.0197L20.9599 10.1797C21.0199 10.1197 21.0399 10.0497 21.0099 9.96969C20.9799 9.88969 20.9299 9.84969 20.8499 9.82969L15.3999 9.03969C15.0699 8.98969 14.7899 8.78969 14.6499 8.48969L12.2099 3.54969C12.1699 3.47969 12.1099 3.43969 12.0299 3.43969H11.9999Z" fill="black"/>
</svg>
