<svg width="24" height="24" viewBox="0 0 24 24" fill="none" xmlns="http://www.w3.org/2000/svg">
<g clip-path="url(#clip0_400_8980)">
<path d="M21.58 3.90999H17.1V2.02999C17.1 0.90999 16.19 -0.0100098 15.06 -0.0100098H8.54C7.42 -0.0100098 6.5 0.89999 6.5 2.02999V3.90999H2.02C1.46 3.90999 1 4.36999 1 4.92999C1 5.48999 1.46 5.94999 2.02 5.94999H3.45V20.99C3.45 22.68 4.82 24.05 6.51 24.05H17.11C18.8 24.05 20.17 22.68 20.17 20.99V5.94999H21.6C22.16 5.94999 22.62 5.48999 22.62 4.92999C22.62 4.36999 22.16 3.90999 21.6 3.90999H21.58ZM8.54 2.03999H15.06V3.91999H8.54V2.03999ZM18.12 20.99C18.12 21.55 17.66 22.01 17.1 22.01H6.5C5.94 22.01 5.48 21.55 5.48 20.99V5.94999H18.11V20.99H18.12ZM8.41 10.65C7.99 10.65 7.65 10.99 7.65 11.41V18.75C7.65 19.17 7.99 19.51 8.41 19.51C8.83 19.51 9.17 19.17 9.17 18.75V11.41C9.17 10.99 8.83 10.65 8.41 10.65ZM11.8 10.65C11.38 10.65 11.04 10.99 11.04 11.41V18.75C11.04 19.17 11.38 19.51 11.8 19.51C12.22 19.51 12.56 19.17 12.56 18.75V11.41C12.56 10.99 12.22 10.65 11.8 10.65ZM15.19 10.65C14.77 10.65 14.43 10.99 14.43 11.41V18.75C14.43 19.17 14.77 19.51 15.19 19.51C15.61 19.51 15.95 19.17 15.95 18.75V11.41C15.95 10.99 15.61 10.65 15.19 10.65Z" fill="black"/>
</g>
<defs>
<clipPath id="clip0_400_8980">
<rect width="24" height="24" fill="white"/>
</clipPath>
</defs>
</svg>
