<svg width="24" height="24" viewBox="0 0 24 24" fill="none" xmlns="http://www.w3.org/2000/svg">
<g clip-path="url(#clip0_3944_81)">
<path d="M12 4.00562C6.45 4.00562 0.859998 7.65562 0.0199976 11.8056C-0.0100024 11.9356 -0.0100024 12.0656 0.0199976 12.1956C0.859998 16.3556 6.45 19.9956 12 19.9956C17.55 19.9956 23.15 16.3456 23.98 12.1956C24.01 12.0656 24.01 11.9356 23.98 11.8056C23.15 7.64562 17.55 4.00562 12 4.00562ZM12 18.0056C7.09 18.0056 2.77 14.8756 2.03 12.0056C2.77 9.13562 7.1 6.00562 12 6.00562C16.9 6.00562 21.23 9.13562 21.97 12.0056C21.23 14.8756 16.91 18.0056 12 18.0056ZM12 7.50562C9.52 7.50562 7.5 9.52562 7.5 12.0056C7.5 14.4856 9.52 16.5056 12 16.5056C14.48 16.5056 16.5 14.4856 16.5 12.0056C16.5 9.52562 14.48 7.50562 12 7.50562ZM12 14.5056C10.62 14.5056 9.5 13.3856 9.5 12.0056C9.5 10.6256 10.62 9.50562 12 9.50562C13.38 9.50562 14.5 10.6256 14.5 12.0056C14.5 13.3856 13.38 14.5056 12 14.5056Z" fill="black"/>
</g>
<defs>
<clipPath id="clip0_3944_81">
<rect width="24" height="24" fill="white" transform="translate(0 0.00561523)"/>
</clipPath>
</defs>
</svg>
