<svg width="24" height="24" viewBox="0 0 24 24" fill="none" xmlns="http://www.w3.org/2000/svg">
<path d="M18.43 4.34C16.63 2.83 14.35 2 12 2C6.49 2 2 6.49 2 12C2 17.51 6.49 22 12 22C17.51 22 22 17.51 22 12C22 9.04 20.7 6.25 18.43 4.34ZM12 20C7.59 20 4 16.41 4 12C4 7.59 7.59 4 12 4C13.88 4 15.71 4.67 17.15 5.87C18.96 7.4 20 9.63 20 12C20 16.41 16.41 20 12 20ZM16.16 6.5C15.74 6.14 15.11 6.18 14.75 6.59L12 9.73L9.25 6.59C8.89 6.17 8.25 6.13 7.84 6.5C7.42 6.86 7.38 7.5 7.75 7.91L10.33 10.86H8.67C8.12 10.86 7.67 11.31 7.67 11.86C7.67 12.41 8.12 12.86 8.67 12.86H11V14.07H8.67C8.12 14.07 7.67 14.52 7.67 15.07C7.67 15.62 8.12 16.07 8.67 16.07H11V17.75C11 18.3 11.45 18.75 12 18.75C12.55 18.75 13 18.3 13 17.75V16.07H15.33C15.88 16.07 16.33 15.62 16.33 15.07C16.33 14.52 15.88 14.07 15.33 14.07H13V12.86H15.33C15.88 12.86 16.33 12.41 16.33 11.86C16.33 11.31 15.88 10.86 15.33 10.86H13.67L16.25 7.91C16.61 7.49 16.57 6.86 16.16 6.5Z" fill="black"/>
</svg>
